<svg xmlns="http://www.w3.org/2000/svg" width="22.333" height="24.968" viewBox="0 0 22.333 24.968">
  <path id="icon-phone" d="M21.092,17.339a12.714,12.714,0,0,1-4.467-.832,1.4,1.4,0,0,0-1.241.277l-2.73,3.052a20.6,20.6,0,0,1-8.189-9.155L7.2,7.629a1.2,1.2,0,0,0,.248-1.387,20.712,20.712,0,0,1-.62-4.855A1.247,1.247,0,0,0,5.583,0H1.241A1.247,1.247,0,0,0,0,1.387C0,14.426,9.43,24.968,21.092,24.968a1.247,1.247,0,0,0,1.241-1.387V18.726A1.247,1.247,0,0,0,21.092,17.339Zm-1.241-4.855h2.481C22.333,5.548,17.37,0,11.167,0V2.774C16.005,2.774,19.852,7.074,19.852,12.484Zm-4.963,0H17.37c0-3.884-2.73-6.935-6.2-6.935V8.323A3.889,3.889,0,0,1,14.889,12.484Z" fill="#9e9e9e" fill-rule="evenodd"/>
</svg>
