<?xml version="1.0" encoding="UTF-8" standalone="no"?>
<svg
   xmlns:dc="http://purl.org/dc/elements/1.1/"
   xmlns:cc="http://creativecommons.org/ns#"
   xmlns:rdf="http://www.w3.org/1999/02/22-rdf-syntax-ns#"
   xmlns:svg="http://www.w3.org/2000/svg"
   xmlns="http://www.w3.org/2000/svg"
   xmlns:sodipodi="http://sodipodi.sourceforge.net/DTD/sodipodi-0.dtd"
   xmlns:inkscape="http://www.inkscape.org/namespaces/inkscape"
   width="22.333"
   height="24.968"
   viewBox="0 0 22.333 24.968"
   version="1.1"
   id="svg3"
   sodipodi:docname="phone-icon.svg"
   inkscape:version="1.0.1 (3bc2e813f5, 2020-09-07)">
  <metadata
     id="metadata9">
    <rdf:RDF>
      <cc:Work
         rdf:about="">
        <dc:format>image/svg+xml</dc:format>
        <dc:type
           rdf:resource="http://purl.org/dc/dcmitype/StillImage" />
      </cc:Work>
    </rdf:RDF>
  </metadata>
  <defs
     id="defs7" />
  <sodipodi:namedview
     pagecolor="#ffffff"
     bordercolor="#666666"
     borderopacity="1"
     objecttolerance="10"
     gridtolerance="10"
     guidetolerance="10"
     inkscape:pageopacity="0"
     inkscape:pageshadow="2"
     inkscape:window-width="1366"
     inkscape:window-height="715"
     id="namedview5"
     showgrid="false"
     inkscape:zoom="12.375841"
     inkscape:cx="10.7364"
     inkscape:cy="17.063379"
     inkscape:window-x="-8"
     inkscape:window-y="22"
     inkscape:window-maximized="1"
     inkscape:current-layer="svg3" />
  <path
     id="icon-phone"
     d="M21.092,17.339a12.714,12.714,0,0,1-4.467-.832,1.4,1.4,0,0,0-1.241.277l-2.73,3.052a20.6,20.6,0,0,1-8.189-9.155L7.2,7.629a1.2,1.2,0,0,0,.248-1.387,20.712,20.712,0,0,1-.62-4.855A1.247,1.247,0,0,0,5.583,0H1.241A1.247,1.247,0,0,0,0,1.387C0,14.426,9.43,24.968,21.092,24.968a1.247,1.247,0,0,0,1.241-1.387V18.726A1.247,1.247,0,0,0,21.092,17.339Zm-1.241-4.855h2.481C22.333,5.548,17.37,0,11.167,0V2.774C16.005,2.774,19.852,7.074,19.852,12.484Zm-4.963,0H17.37c0-3.884-2.73-6.935-6.2-6.935V8.323A3.889,3.889,0,0,1,14.889,12.484Z"
     fill="#9e9e9e"
     fill-rule="evenodd"
     style="fill:#8b8b8b;fill-opacity:1" />
</svg>
