<svg xmlns="http://www.w3.org/2000/svg" xmlns:xlink="http://www.w3.org/1999/xlink" width="617.141" height="465.5" viewBox="0 0 617.141 465.5">
  <defs>
    <linearGradient id="linear-gradient" y1="0.411" x2="1" y2="0.411" gradientUnits="objectBoundingBox">
      <stop offset="0" stop-color="#2eeeee"/>
      <stop offset="1" stop-color="#4dbbeb"/>
    </linearGradient>
    <linearGradient id="linear-gradient-2" x1="0.877" y1="1" x2="0.877" gradientUnits="objectBoundingBox">
      <stop offset="0" stop-color="gray" stop-opacity="0.251"/>
      <stop offset="0.54" stop-color="gray" stop-opacity="0.122"/>
      <stop offset="1" stop-color="gray" stop-opacity="0.102"/>
    </linearGradient>
    <linearGradient id="linear-gradient-3" y1="0.401" x2="1" y2="0.415" gradientUnits="objectBoundingBox">
      <stop offset="0" stop-color="#9180e2"/>
      <stop offset="1" stop-color="#6c55e5"/>
    </linearGradient>
    <linearGradient id="linear-gradient-4" y1="0.404" x2="1" y2="0.404" gradientUnits="objectBoundingBox">
      <stop offset="0" stop-color="#d992df"/>
      <stop offset="1" stop-color="#c129cf"/>
    </linearGradient>
    <linearGradient id="linear-gradient-5" x1="0.5" y1="1" x2="0.5" y2="0" xlink:href="#linear-gradient-2"/>
    <linearGradient id="linear-gradient-6" x1="0.5" x2="0.5" y2="1" gradientUnits="objectBoundingBox">
      <stop offset="0" stop-color="#ff8b96"/>
      <stop offset="1" stop-color="#b82430"/>
    </linearGradient>
  </defs>
  <g id="illustration-2" transform="translate(-0.016 -0.004)">
    <path id="Path_140" data-name="Path 140" d="M380.09,63.757c-26.481,22.479-60.829,21.024-90.928,9.327s-57.749-32.516-87.075-47.316a244.47,244.47,0,0,0-76.5-24.179C88.21-3.6,46.47,2.733,20.43,39.056c-29,40.469-26.773,113.459,4.58,150.584,15.957,18.895,36.85,28.17,55.069,42.942s35.092,39.255,33.541,67.734C112.183,326.654,95.481,346.905,78.2,359.6c-13.358,9.808-29.808,20.521-31.416,40.841C45.222,420.1,59.055,435.5,72.264,444.263c43.091,28.577,96.19,28.3,139.132-.721,15.31-10.358,29.372-24.133,45.433-32.2,42.169-21.185,88.638.137,133.292,7.941A221.8,221.8,0,0,0,503.488,409.28c22.112-7.919,44.31-20.04,59.844-42.576,11.205-16.261,18.185-36.844,24.735-57.17q10.478-32.5,20.148-65.478c3.865-13.2,7.672-26.647,8.674-40.761,1.809-25.582-5.817-50.872-16.2-72.458-24.66-51.261-66.194-87.3-111.174-96.459S396.946,43.1,362.06,82.233" transform="translate(0 0)" fill="#365e9f" opacity="0.1"/>
    <ellipse id="Ellipse_22" data-name="Ellipse 22" cx="129.96" cy="5.932" rx="129.96" ry="5.932" transform="translate(150.35 298.976)" fill="#bbb8fa" opacity="0.1"/>
    <path id="Path_141" data-name="Path 141" d="M393.982,313.833a117.822,117.822,0,1,1,117.8-117.822A117.953,117.953,0,0,1,393.982,313.833Zm0-234.5A116.676,116.676,0,1,0,510.658,196.012,116.808,116.808,0,0,0,393.982,79.335Z" transform="translate(-118.035 -33.42)" fill="#fff"/>
    <path id="Path_142" data-name="Path 142" d="M413.717,307.132A91.381,91.381,0,1,1,505.1,215.751,91.492,91.492,0,0,1,413.717,307.132Zm0-181.616a90.236,90.236,0,1,0,90.236,90.236A90.34,90.34,0,0,0,413.717,125.515Z" transform="translate(-137.77 -53.159)" fill="#fff"/>
    <path id="Path_143" data-name="Path 143" d="M434.922,299.933A62.982,62.982,0,1,1,497.9,236.952a62.982,62.982,0,0,1-62.982,62.982Zm0-124.818a61.837,61.837,0,1,0,61.837,61.837A61.837,61.837,0,0,0,434.922,175.115Z" transform="translate(-158.975 -74.36)" fill="#fff"/>
    <ellipse id="Ellipse_23" data-name="Ellipse 23" cx="8.17" cy="2.702" rx="8.17" ry="2.702" transform="translate(552.94 228.133)" fill="#bbb8fa" opacity="0.1"/>
    <ellipse id="Ellipse_24" data-name="Ellipse 24" cx="48.118" cy="7.896" rx="48.118" ry="7.896" transform="translate(54.119 365.313)" fill="#bbb8fa" opacity="0.1"/>
    <g id="Group_13" data-name="Group 13" transform="translate(32.116 154.433)" opacity="0.1">
      <path id="Path_144" data-name="Path 144" d="M210.551,269.72H63.752a7.7,7.7,0,0,0-7.672,7.672v92.755a7.7,7.7,0,0,0,7.672,7.672H178.912s2.983,15.837-6.819,17.543c0,0,21.952,1.574,18.116-17.543h20.343a7.7,7.7,0,0,0,7.672-7.672V277.392a7.7,7.7,0,0,0-7.672-7.672Z" transform="translate(-56.08 -269.72)"/>
      <g id="Group_12" data-name="Group 12" transform="translate(21.608 24.62)" opacity="0.2">
        <rect id="Rectangle_5" data-name="Rectangle 5" width="118.921" height="7.249" rx="3.624"/>
        <rect id="Rectangle_6" data-name="Rectangle 6" width="118.921" height="7.249" rx="3.624" transform="translate(0 32.396)"/>
        <rect id="Rectangle_7" data-name="Rectangle 7" width="99.729" height="7.249" rx="3.624" transform="translate(0 48.588)"/>
        <rect id="Rectangle_8" data-name="Rectangle 8" width="51.565" height="7.249" rx="3.624" transform="translate(0 16.198)"/>
      </g>
    </g>
    <path id="Path_145" data-name="Path 145" d="M212.787,268.6H65.982a7.7,7.7,0,0,0-7.672,7.672v92.755a7.7,7.7,0,0,0,7.672,7.672H181.142s2.989,15.837-6.819,17.538c0,0,21.952,1.575,18.116-17.538h20.349a7.689,7.689,0,0,0,7.667-7.672V276.272A7.689,7.689,0,0,0,212.787,268.6Z" transform="translate(-24.917 -114.808)" fill="url(#linear-gradient)"/>
    <g id="Group_14" data-name="Group 14" transform="translate(55.007 178.412)" opacity="0.2">
      <rect id="Rectangle_9" data-name="Rectangle 9" width="118.921" height="7.249" rx="3.624" fill="#fff"/>
      <rect id="Rectangle_10" data-name="Rectangle 10" width="118.921" height="7.249" rx="3.624" transform="translate(0 32.396)" fill="#fff"/>
      <rect id="Rectangle_11" data-name="Rectangle 11" width="99.729" height="7.249" rx="3.624" transform="translate(0 48.593)" fill="#fff"/>
      <rect id="Rectangle_12" data-name="Rectangle 12" width="51.565" height="7.249" rx="3.624" transform="translate(0 16.198)" fill="#fff"/>
    </g>
    <path id="Path_146" data-name="Path 146" d="M190.4,258.939l-8.136,17.3s-1.2,3.246-1.975,3.848-4.191,10.879-4.191,10.879l-8.72,13.478-.573.916-3.435-.945-2.4-8.972.149-2.605v-.326s5.4-5.645,6.6-6.075c0,0,.939.109,2.743-4.266s3.435-5.325,3.435-5.325l.939-3.172,10.111-16.095s8.474-12.155,10.781-6.762-5.325,8.119-5.325,8.119Zm-33.781,122.9a1.947,1.947,0,0,1-.275.83c-.939,1.368-6.247,29.367-6.247,29.367.424,1.889-.767,5.657-1.546,7.369s-2.485,10.615-2.485,10.615-.424,19.181-1.534,22.175.355,9.419.355,9.419c-.109,2.954,1.666,6.075,2.72,7.667.08.1.143.206.206.292.344.492.573.773.573.773a4.46,4.46,0,0,0,1.2,1.483c.074.063.155.12.24.183a13.632,13.632,0,0,0,4.8,2.027l.166.034c.687.155,1.145.212,1.145.212l.424,2.29-4.535.939-8.646.573s-10.192.773-7.878-3.767a7.175,7.175,0,0,0,.418-.962c.086-.218.166-.447.235-.676a23.5,23.5,0,0,0,.452-9.665l-1.993-15.431c-3.246-14.383,2.565-30.4,2.565-30.4s-.51-1.283.607-4.535,0-10.358,0-10.358-.573-9.161-1.368-13.7a27.683,27.683,0,0,1-.309-5.766,28.8,28.8,0,0,1,.309-3.378l19.524-2.588a15.063,15.063,0,0,1,.882,4.976Z" transform="translate(-57.026 -106.618)" fill="#ffd2c6"/>
    <path id="Path_147" data-name="Path 147" d="M157.464,640.415l-4.535.939-8.646.573s-10.192.773-7.878-3.768a7.169,7.169,0,0,0,.418-.962c.086-.218.166-.447.235-.676a15.684,15.684,0,0,1,5.153,1.042c2.9,1.145,5.09-1.8,5.09-1.8l1.409-2.691.206-.389c.344.492.573.773.573.773a4.58,4.58,0,0,0,1.437,1.66l-.24.5-1.368,2.863s1.752.177,4.151.573a1.855,1.855,0,0,0,2.256-1.237l.166.034c.687.155,1.145.212,1.145.212Z" transform="translate(-58.152 -270.43)" opacity="0.1"/>
    <path id="Path_148" data-name="Path 148" d="M161.108,643.077c-.344,1.54-9.888,2.015-9.888,2.015s-5.313-.515-6.8.727-5.874.945-6.046.945-2.479-.092-3.384-4.237c-.876-4.042,1.179-4.747,1.283-4.781a15.539,15.539,0,0,1,5.4,1.048c2.9,1.145,5.09-1.8,5.09-1.8l1.615-3.086c.344.492.573.773.573.773a4.524,4.524,0,0,0,1.437,1.666l-1.609,3.384s1.752.177,4.151.573a1.982,1.982,0,0,0,2.422-1.884,1.951,1.951,0,0,0,0-.258s1.494.429,3.332.945a3.435,3.435,0,0,1,2.428,3.968Z" transform="translate(-57.6 -270.956)" fill="#626696"/>
    <path id="Path_149" data-name="Path 149" d="M196.23,495.723c-.229,1.368-.464,4.913-.464,4.913.8,2.966-1.254,10.014-1.254,10.014l-1.025,4.008c.458,5.153-2.823,17.7-2.823,17.7s-2.2,11.646-3.344,16.673a13.862,13.862,0,0,0,.573,8.394c.057.137.092.206.092.206a.958.958,0,0,0,.069.281c.029.092.074.275.12.407a6.183,6.183,0,0,0,1.145,1.912,5.8,5.8,0,0,0,.613.63l.034.034a12.391,12.391,0,0,0,3.641,2.239l.573.229a17.224,17.224,0,0,0,1.815.573,1.933,1.933,0,0,0,.206.046l-.464,2.691-6.046-1.546-8.1-2.628-4.008-2.29s.046-.218.126-.636V559.5c.034-.177.069-.389.12-.63.681-3.493,2.233-13.4,1.454-20.669-.968-9.018,2.788-21.465,3.7-24.431a14.812,14.812,0,0,0,.687-5.25c-1.489-2.176-1.832-10.844-1.832-10.844s-2.737-5.6-5-11.537a30.346,30.346,0,0,1-1.632-6,20.984,20.984,0,0,1-.332-4.386s18.391-16.782,20.406-.532c.069.573.132,1.076.195,1.592,1.763,14.852.973,17.589.756,18.912Z" transform="translate(-74.737 -200.097)" fill="#ffd2c6"/>
    <path id="Path_150" data-name="Path 150" d="M198.28,630.82l-.464,2.691-6.046-1.546-8.1-2.628-4.008-2.29s.046-.218.126-.635v-.069c.034-.177.069-.389.12-.63l.573-.057h.046a7.626,7.626,0,0,1,3.4.458c1.317.5,3.046,1.065,3.4.824a4.33,4.33,0,0,1,1.941-.344l.842-1.844.12-.281a6.116,6.116,0,0,0,1.145,1.912,6.46,6.46,0,0,0,.647.664l-.034.653-.046.922a11.779,11.779,0,0,0,2.909,1.345,1.681,1.681,0,0,0,.813,0l.573.229a17.2,17.2,0,0,0,1.815.573,1.9,1.9,0,0,0,.235.052Z" transform="translate(-76.787 -266.921)" opacity="0.1"/>
    <path id="Path_151" data-name="Path 151" d="M194.842,637.075c-1.689-.487-5.76-1.26-6.418-.658s-6.3,0-6.3,0a3.435,3.435,0,0,1-2.914-1.718c-1.145-1.826-.223-7.735-.223-7.735l.418-.04.7-.069h.046a7.539,7.539,0,0,1,3.4.458c1.317.492,3.046,1.059,3.4.824a4.248,4.248,0,0,1,1.941-.344l.962-2.124a6.184,6.184,0,0,0,1.145,1.912,6.456,6.456,0,0,0,.647.664l-.08,1.575a11.86,11.86,0,0,0,2.909,1.34,1.145,1.145,0,0,0,1.4-.441.864.864,0,0,0,.1-.235,9.834,9.834,0,0,0,2.388.8,4.371,4.371,0,0,1,4.661,3.355c.859,2.622-6.521,2.92-8.176,2.439Z" transform="translate(-76.35 -267.434)" fill="#626696"/>
    <path id="Path_152" data-name="Path 152" d="M158.484,476.953c-.378.109-.721.212-1.042.315a14.453,14.453,0,0,1-2.525.532c-5.4.762-14.314.3-17.137.126a28.8,28.8,0,0,1,.309-3.378l19.524-2.588a15.3,15.3,0,0,1,.87,4.993Z" transform="translate(-58.886 -201.732)" opacity="0.1"/>
    <path id="Path_153" data-name="Path 153" d="M174.216,452.336s-7.168,1.111-13,2.388c-1.947.424-3.745.865-5.073,1.3a15.567,15.567,0,0,1-2.525.532c-6.493.91-18.024.069-18.024.069-3.166-10.272,3.848-23.206,3.848-23.206-.166-1.031,1.46-4.191,1.46-4.191l.029-.1,1-3.664h26.63l.326,1.575.676,3.206,4.18,19.851Z" transform="translate(-57.602 -181.856)" fill="#765aff"/>
    <path id="Path_154" data-name="Path 154" d="M195.474,476.8l-.16.069-3.115,1.38c-3.372,1.557-13.467,1.849-16.994,1.878a20.981,20.981,0,0,1-.332-4.386s18.391-16.782,20.406-.533C195.348,475.788,195.411,476.286,195.474,476.8Z" transform="translate(-74.737 -200.092)" opacity="0.1"/>
    <path id="Path_155" data-name="Path 155" d="M183.583,456.988l-.653.286-3.115,1.386c-3.435,1.58-13.85,1.861-17.177,1.878h-.876a4.012,4.012,0,0,1-3.08-1.872c0-.206-.16-1.22-.3-2.09-.115-.7-.218-1.3-.218-1.3a79.972,79.972,0,0,1-10.358-5.365c-2.617-1.781-1.958-14.434-1.449-20.8.178-2.193.332-3.636.332-3.636l26.956,1.575,3.779.218,2.164.481.573.12s1.546,11.3,2.29,12.241.263,4.111.172,5.915a10.988,10.988,0,0,1-.252,2.29s1.111,3.172.847,4.947a9.865,9.865,0,0,0,.361,3.722Z" transform="translate(-62.354 -181.865)" fill="#765aff"/>
    <circle id="Ellipse_25" data-name="Ellipse 25" cx="11.045" cy="11.045" r="11.045" transform="translate(81.333 159.174)" fill="#ffd2c6"/>
    <path id="Path_156" data-name="Path 156" d="M145.165,305.311s.767,10.461-1.368,12.86a95.591,95.591,0,0,1-7.707,6.934l1.718,7.105,9.676,1.116,11.3-12.075-2.571-3.166s-1.97-6.682-.344-10.02-10.707-2.754-10.707-2.754Z" transform="translate(-58.163 -130.483)" fill="#ffd2c6"/>
    <path id="Path_157" data-name="Path 157" d="M172.555,336.089l-.573.916-3.435-.945-2.4-8.972.149-2.605.7-1.013s3.767.092,3.6,3.516c-.166,3.006,1.546,7.959,1.952,9.1ZM180,385.633s-2.725.607-5.846,1.013-6.722.613-8.2-.246c-2.479-1.466-15.911-1.048-19.765-.9a4.411,4.411,0,0,0-.664.029l1-3.664h26.63l.326,1.575,3.779.218,2.164.481c.361.887.578,1.494.578,1.494Z" transform="translate(-62.199 -138.262)" opacity="0.1"/>
    <path id="Path_158" data-name="Path 158" d="M156.292,324.66s3.767.086,3.6,3.51,2.056,9.333,2.056,9.333l-.859,1.97s-1.2,4.792-.258,5.995,4.369,1.2,2.4,11.045c0,0-.424,7.363.6,9.762s1.025,8.13,2.565,10.529a57.871,57.871,0,0,1,3.6,7.964s-11.136,2.479-14.045.767-20.807-.842-20.807-.842.086-3,0-3.338a2.863,2.863,0,0,1,.429-2.187c.573-.813,1.54-2.181,1.025-3.378s1.288-2.966.344-4.821-2.09-2.227-1.861-3.241a4.392,4.392,0,0,0-1.048-3.241c-.681-.853-5.313-9.905-5.313-9.905l-.767-4.243s-5.96-4.369-5.852-6.424,2.256-4.9,2.256-4.9l5.726-5.628s3.166,3.435,6.247,2.227,9.728-6.934,9.728-6.934,2.37-1.283,2.542-2.222,1.626-.086,1.626-.086,2.141-1.174,2.571-.761a7.431,7.431,0,0,0,2.29.761Z" transform="translate(-52.183 -138.77)" fill="#fff"/>
    <path id="Path_159" data-name="Path 159" d="M104.745,355.81l-1.826,1.426a24.386,24.386,0,0,0-2.29,9.333,127.871,127.871,0,0,1-2.29,14.463l-3.6,6.43s-5.926,12.407-6.693,15.7-4.283,8.863-4.283,8.863-11.9,10.7-3.6,12.6,8.56-8.514,8.56-8.514,1.941-2.141,2.256-3.6,10.844-20.08,10.844-20.08,3.687-5.01,2.914-7.661c0,0,4.792-11.274,4.792-14.1a50.087,50.087,0,0,0-.767-7.014l.767-5.909Z" transform="translate(-33.002 -152.085)" fill="#ffd2c6"/>
    <path id="Path_160" data-name="Path 160" d="M160.729,397.04s-8.394,4.392-10.02,4.621,7.105-.916,7.105-.916Zm6.848,3.424s-11.131,3.767-16.032,3.08C151.568,403.544,163.724,405.857,167.577,400.464Z" transform="translate(-64.326 -169.708)" opacity="0.1"/>
    <path id="Path_161" data-name="Path 161" d="M149.712,344.362s-10.02,6.3-15.929,5.273c0,0,13.787,2.743,15.929,1.288l-6.167-1.718s6.854-3.619,6.167-4.844Zm-11.543-81.2a10.432,10.432,0,0,0-8.428,1.592c-1.718,1.351-2.863,3.435-4.792,4.42a28.213,28.213,0,0,1-3.132,1.105,9.035,9.035,0,0,0-5.514,9.734c.3,1.718,1.1,3.264,1.489,4.935.7,2.989.086,6.121-.676,9.092a95.676,95.676,0,0,1-9.533,23.607,2.473,2.473,0,0,0-.475,1.586,2.29,2.29,0,0,0,.573,1.013c3.956,4.58,10.4,6.144,16.444,6.35a12.454,12.454,0,0,0,6.516-1.082,9.848,9.848,0,0,0,3.178-2.914,15.459,15.459,0,0,0,2.966-9.968c-.166-2.863-1.145-5.777-.407-8.554a2.29,2.29,0,0,1,.515-1.048c.653-.664,1.718-.492,2.657-.6,2.513-.292,4.14-2.943,4.437-5.451s-.332-5.044-.344-7.569a15.854,15.854,0,0,1,2.983-9.321c.836-1.145,1.907-2.29,2.187-3.727.355-1.8-.693-3.132-1.6-4.581-1.4-2.221-2.09-4.815-4.225-6.51A11.406,11.406,0,0,0,138.169,263.161Z" transform="translate(-45.774 -112.375)" opacity="0.1"/>
    <path id="Path_162" data-name="Path 162" d="M136.99,261.961a10.417,10.417,0,0,0-8.428,1.6c-1.718,1.346-2.863,3.435-4.792,4.42a27.671,27.671,0,0,1-3.126,1.1,9.041,9.041,0,0,0-5.519,9.734c.3,1.718,1.1,3.264,1.494,4.941.7,2.989.08,6.115-.676,9.087a95.734,95.734,0,0,1-9.516,23.607,2.422,2.422,0,0,0-.469,1.58,2.2,2.2,0,0,0,.573,1.013c3.962,4.58,10.4,6.144,16.444,6.35a12.451,12.451,0,0,0,6.516-1.076,9.871,9.871,0,0,0,3.178-2.92,15.459,15.459,0,0,0,2.949-9.945c-.166-2.863-1.145-5.777-.4-8.56a2.291,2.291,0,0,1,.51-1.048c.653-.664,1.718-.492,2.662-.573,2.514-.292,4.134-2.943,4.432-5.457s-.326-5.039-.344-7.569a15.854,15.854,0,0,1,2.977-9.35c.836-1.145,1.9-2.29,2.181-3.733.355-1.8-.687-3.126-1.592-4.581-1.4-2.222-2.09-4.815-4.231-6.5a11.349,11.349,0,0,0-4.821-2.113Z" transform="translate(-45.282 -111.862)" fill="#985c7e"/>
    <path id="Path_163" data-name="Path 163" d="M153.7,449.13s2.2,10.272,5.852,13.072Z" transform="translate(-65.691 -191.974)" opacity="0.1"/>
    <g id="Group_15" data-name="Group 15" transform="translate(60.658 160.273)" opacity="0.1">
      <path id="Path_164" data-name="Path 164" d="M115.766,288.886c-.115-.4-.246-.8-.384-1.2C115.5,288.09,115.629,288.491,115.766,288.886Zm31.239-8.966a3.717,3.717,0,0,1-.046.968c-.286,1.449-1.351,2.577-2.187,3.733a15.808,15.808,0,0,0-2.983,9.316c0,2.531.636,5.056.338,7.569s-1.918,5.153-4.432,5.457c-.928.109-2.01-.069-2.657.573a2.29,2.29,0,0,0-.515,1.048c-.727,2.783.24,5.691.4,8.56a15.459,15.459,0,0,1-2.943,9.945,9.927,9.927,0,0,1-3.178,2.92,12.807,12.807,0,0,1-6.521,1.076c-5.943-.2-12.264-1.718-16.238-6.132a1.569,1.569,0,0,0-.1.825,2.2,2.2,0,0,0,.573,1.013c3.962,4.58,10.4,6.144,16.444,6.35a12.451,12.451,0,0,0,6.516-1.076,9.928,9.928,0,0,0,3.178-2.92,15.459,15.459,0,0,0,2.949-9.945c-.166-2.863-1.145-5.777-.4-8.56a2.29,2.29,0,0,1,.51-1.048c.653-.664,1.718-.492,2.662-.573,2.514-.292,4.134-2.943,4.432-5.457s-.326-5.039-.344-7.569a15.854,15.854,0,0,1,2.977-9.316c.836-1.145,1.9-2.29,2.181-3.733a4.243,4.243,0,0,0-.618-3.023Z" transform="translate(-105.929 -279.92)"/>
    </g>
    <path id="Path_165" data-name="Path 165" d="M506.768,763.959s-21.786-1.317-19.215,13.948a3.724,3.724,0,0,0,1.935,3.922s.04-1.145,2.233-.744a10.02,10.02,0,0,0,2.365.115,4.941,4.941,0,0,0,2.9-1.2s6.121-2.531,8.5-12.539c0,0,1.763-2.181,1.718-2.743l-3.676,1.569s1.254,2.651.263,4.855c0,0-.115-4.758-.825-4.643-.143,0-1.907.916-1.907.916s2.159,4.621.527,7.976c0,0,.618-5.691-1.2-7.638L497.8,769.26s2.525,4.775.813,8.669c0,0,.441-5.972-1.357-8.3l-2.348,1.826s2.376,4.7.928,7.93c0,0-.189-6.951-1.437-7.443a14.085,14.085,0,0,0-2.359,2.548s1.62,3.435.613,5.216c0,0-.618-4.632-1.145-4.649,0,0-2.044,3.069-2.256,5.153a11.154,11.154,0,0,1,1.758-5.468,6.132,6.132,0,0,0-3.126,1.62s.315-2.17,3.63-2.359a15.653,15.653,0,0,1,2.141-2.468,13.425,13.425,0,0,0-5.3.613s1.758-2.05,5.9-1.145l2.29-1.889s-4.34-.573-6.184.063c0,0,2.118-1.815,6.808-.492l2.519-1.512a22.886,22.886,0,0,0-5.9-.51s2.325-1.254,6.642.109l1.8-.813s-2.714-.532-3.5-.613-.836-.3-.836-.3a9.368,9.368,0,0,1,5.09.573s3.848-1.42,3.785-1.661Z" transform="translate(-208.302 -326.532)" fill="#bbb8fa"/>
    <ellipse id="Ellipse_26" data-name="Ellipse 26" cx="15.419" cy="2.605" rx="15.419" ry="2.605" transform="translate(268.04 454.026)" fill="#bbb8fa" opacity="0.1"/>
    <path id="Path_166" data-name="Path 166" d="M804.881,731.359s-21.757-1.311-19.215,13.953a3.724,3.724,0,0,0,1.935,3.922s.04-1.145,2.233-.75a10.087,10.087,0,0,0,2.37.115,4.89,4.89,0,0,0,2.891-1.2s6.126-2.525,8.5-12.533c0,0,1.763-2.187,1.718-2.748l-3.7,1.6s1.254,2.651.269,4.855c0,0-.12-4.764-.825-4.649-.143,0-1.912.916-1.912.916s2.159,4.621.532,7.982c0,0,.618-5.691-1.208-7.644l-2.588,1.511s2.525,4.769.813,8.663c0,0,.441-5.972-1.357-8.3L793,738.877s2.37,4.706.922,7.936c0,0-.189-6.957-1.431-7.478a14.359,14.359,0,0,0-2.365,2.554s1.626,3.435.618,5.21c0,0-.618-4.626-1.145-4.649,0,0-2.044,3.069-2.256,5.153a11.134,11.134,0,0,1,1.763-5.468,6.161,6.161,0,0,0-3.132,1.62s.321-2.164,3.636-2.359a15.647,15.647,0,0,1,2.141-2.468,13.456,13.456,0,0,0-5.3.613s1.764-2.05,5.9-1.117l2.29-1.889s-4.346-.573-6.184.063c0,0,2.118-1.809,6.808-.492l2.519-1.506a22.673,22.673,0,0,0-5.909-.51s2.325-1.254,6.647.1l1.8-.807s-2.714-.533-3.51-.618-.836-.3-.836-.3a9.384,9.384,0,0,1,5.1.573s3.87-1.437,3.8-1.678Z" transform="translate(-335.729 -312.597)" fill="#bbb8fa"/>
    <ellipse id="Ellipse_27" data-name="Ellipse 27" cx="15.419" cy="2.605" rx="15.419" ry="2.605" transform="translate(438.726 435.36)" fill="#bbb8fa" opacity="0.1"/>
    <ellipse id="Ellipse_28" data-name="Ellipse 28" cx="44.402" cy="7.283" rx="44.402" ry="7.283" transform="translate(441.188 242.831)" fill="#bbb8fa" opacity="0.1"/>
    <path id="Path_167" data-name="Path 167" d="M912.749,168.97a23.835,23.835,0,0,0,0-12.173v-5.726s2.073-11.228-7.157-18.431l-6.126-5.4s-3.435-2.943-4.426-3.132a4.5,4.5,0,0,0-.573-.086l-.183-.1a18.444,18.444,0,0,1-1.34-2.823,2.616,2.616,0,0,0,2.181-.744,2.864,2.864,0,0,0,.515-.859c.355-.8.412-1.758.716-2.605a6.081,6.081,0,0,1,1.145-1.872c-.063.1-.126.2-.183.3.865-1.076,2-2,2.806-3.143a6.858,6.858,0,0,0,.447-.7l-.12.143a15.737,15.737,0,0,0,1.8-6.115,5.521,5.521,0,0,0,.034-2.187,7.285,7.285,0,0,0-.613-1.386c-1.328-2.748-1.3-6.2-3.435-8.388-1.6-1.643-4.008-2.147-6.3-2.428s-4.678-.441-6.636-1.638a7.185,7.185,0,0,0-1.8-.991,1.483,1.483,0,0,0-1.769.658,1.144,1.144,0,0,1-.235.475.762.762,0,0,1-.681.04l-3.034-.813.034.155h-.074l.109.481a.267.267,0,0,1,.286.166l-.487.75a7.518,7.518,0,0,1-2.743-.573,1.317,1.317,0,0,0,0,.149h-.04c-.057.859.916,1.414,1.214,2.222a1.682,1.682,0,0,1,0,1.088,2.471,2.471,0,0,1-.573.87c-1.082,1.065-2.456.853-3.7,1.529a.79.79,0,0,0-.452.5.383.383,0,0,0-.04.275.641.641,0,0,0,.252.315,5.726,5.726,0,0,0,1.18.733l-.355.344a13.593,13.593,0,0,0,4.7,22.164c.046.235.08.475.114.733v.069l.034.326-4.094,1.718a3.258,3.258,0,0,1-2.932-1.884c-.95-1.97-4.311,0-4.311,0s-10.266-.773-14.062,1.116c0,0-6.126-2.571-6.985-2.743s-2.159-.859-2.765-.687-1.38-1.145-1.809-1.031-.573-.853-1.981-1.2-1.9.086-3.435-1.46-14.148-7.627-14.148-7.627l-5.691-4.632-6.04-4.8-.109.2c-.034-.143-.074-.292-.114-.447a57.268,57.268,0,0,0-2.239-7.043c-.389-.928-.573-2.1-1.082-1.483-.321.372-.87-.441-1.718-.991a1.426,1.426,0,0,0-2.13.618c-4.7,7.369-6.384,7.9-3.659,10.6,2.422,2.4,4.036,4.529,6.018,5.153l.235.074a.332.332,0,0,1-.132,0l11.451,13.713s8.279,7.2,13.976,9.516,5.262,3,5.262,3,17.251,8.743,19.925,8.588,2.159,17.915,1.036,20.83-2.932,24-2.932,24-1.718,4.455.086,7.541c0,0,.4,5.909.04,7.323-1.574,2.422-3.813,6.533-4.18,10.764a6.166,6.166,0,0,1-.069.653,1.482,1.482,0,0,1-.407.332s.149-.034.384-.115a21.751,21.751,0,0,1-1.145,5.153,21,21,0,0,0-1.409,7.443v13.621l-1.139,8.445s-1.38,6.4,0,7.884a3.625,3.625,0,0,1,.756,2.628,4.866,4.866,0,0,0,.882,3.063,2.325,2.325,0,0,1,.573,1.97c-.458,1.483.676,17.251.676,17.251s-.332,4.346-.79,4.581.767,4.993.767,4.993-4.661,3.888-3.475,5.949l1.191,1.826-.315.309-.195.195a1.815,1.815,0,0,0-1.185-.223,44.439,44.439,0,0,1-4.689,4.174c-2.1,1.517-7.821,3.716-7.821,3.716l-4.512.366h-.086s-2.159-.2-.951,3.143,12.024,2.29,12.024,2.29l6.3-1s11.268.052,14.492-.658c1.351-.3,1.672-1.019,1.586-1.752l-.034-.034a4.5,4.5,0,0,0-.922-1.9.912.912,0,0,0-.08-.1l.206-2.29c4.781-2.754-1.351-8.176-1.351-8.176a54.658,54.658,0,0,1,3.178-6.052c1.082-1.471,1.076-23.315,1.076-23.315s.573-7.89-.922-9.734a3.292,3.292,0,0,1,1.609-2.972c1.065-.727,4.283-10.741,6.808-19.055l1.592,9.8s-.344,4.684.693,6.058a2.331,2.331,0,0,1,.424,1.821,8.1,8.1,0,0,0,.235,3.968,2.565,2.565,0,0,0,.83,1.408c.922.458.979,2.09,1.323,2.433s2.473-.487,2.588.767a28.045,28.045,0,0,1,0,3.315l.693,20.343s-1.145,1.718-1.38,6.172a7.978,7.978,0,0,1-.83,3.641,1.861,1.861,0,0,0,.172,2.187l.2.229-.853.658a1.861,1.861,0,0,0-.527,2.29,1.838,1.838,0,0,0-.533,1.975,2.3,2.3,0,0,0,.149.321,3.224,3.224,0,0,0-1.718.847,14.085,14.085,0,0,1-3.035,3.057,57.2,57.2,0,0,0-4.844,4.145,6.951,6.951,0,0,1-2.828,2.29,4.585,4.585,0,0,1-.853.252c-2.29.464-1.552,2.834.286,3.206s7.936,2.256,12.682,1.145a4.432,4.432,0,0,0,3.475-.481,47.859,47.859,0,0,1,6.773-2.29s2.588,0,2.932-1.031a3.948,3.948,0,0,0,.149-1l.074-.069-.069-.063a13.5,13.5,0,0,0-.177-2.29c-.063-.389-.137-.744-.206-1.025-.223-.859-.63-1.964-.807-2.433a.872.872,0,0,0,.08-.12c.985-1.666-.653-5.726-.653-5.726a10.939,10.939,0,0,1,1.952-2.29c.922-.681,3.338-18.511,3.338-18.511s-.115-4.58,1.145-6.63-1.718-14.514-1.718-14.514-1.265-2.863-.8-3.888-.464-4.8-.464-4.8v-4.5a4.946,4.946,0,0,0-.263-1.58c-.355-1.059-.882-3.092-.309-4.581.807-2.055,2.645-14.743,2.645-14.743s-1.437-5.594.664-10.048a9.612,9.612,0,0,1,.573-1.036c1.557-2.451,1.094-6.8.326-10.306-.12-.544-.246-1.065-.372-1.563-.057-.212-.115-.412-.166-.613l.246-.1a7.719,7.719,0,0,1,.074-.9,6.3,6.3,0,0,0,4.151-2.863s5.262-5.915,9.922-8.4,5-6.086,5-6.086c-.693-1.2,1.231-6.086,1.231-6.086ZM894.427,124.093Zm3.166,52.762-4.981,5.777a.122.122,0,0,1,0-.034c-1.294-1.8,1.208-5.829,1.208-5.829l4.117-9.224a5.578,5.578,0,0,1-.538,2.725c-1.145,1.546,2.067,4.117,2.067,4.117-1.723-.017-1.9,2.468-1.9,2.468Z" transform="translate(-375.463 -62.472)" fill="url(#linear-gradient-2)"/>
    <path id="Path_168" data-name="Path 168" d="M749.762,59.054l-2.714,5.273a10.506,10.506,0,0,1-2.531-.527,9.6,9.6,0,0,1-5.943-5.153c-2.428-5.371,1.592-8.84,3.464-9.86s3.607-2.193,5.01,1.145a58.06,58.06,0,0,1,2.21,7C749.568,58.2,749.762,59.054,749.762,59.054Zm86.411,27.483-4.34,6.476s-20.532,9.791-16.6-1.718c1.718-5.067,1.93-8.777,1.62-11.342v-.069a8.954,8.954,0,0,0-1.609-4.58s20.011-10.237,17.034-3.235a9.735,9.735,0,0,0-.71,4.609,15.7,15.7,0,0,0,2.159,6.4,21.188,21.188,0,0,0,2.451,3.464Z" transform="translate(-315.365 -20.398)" fill="#cc818c"/>
    <path id="Path_169" data-name="Path 169" d="M864.575,294.107s2.954,12.379,1.718,14.423-1.145,6.584-1.145,6.584-2.388,17.721-3.3,18.4a10.876,10.876,0,0,0-1.93,2.29s1.62,4.008.647,5.668a1.346,1.346,0,0,1-.647.573c-1.523.641-7.145-2.2-10.346-3.951a1.763,1.763,0,0,1-.847-1.013,1.8,1.8,0,0,1,.521-1.958,1.867,1.867,0,0,1,.521-2.29l.842-.653-.195-.229a1.861,1.861,0,0,1-.172-2.176,8.03,8.03,0,0,0,.819-3.613c.229-4.432,1.363-6.132,1.363-6.132l-.681-20.217a29.011,29.011,0,0,0,0-3.292c-.115-1.248-2.216-.424-2.554-.767s-.4-1.958-1.305-2.416a2.543,2.543,0,0,1-.825-1.4,8.143,8.143,0,0,1-.235-3.945,2.324,2.324,0,0,0-.418-1.809c-1.025-1.363-.681-6.018-.681-6.018l-1.569-9.734c-2.5,8.262-5.674,18.213-6.722,18.935a3.275,3.275,0,0,0-1.592,2.954c1.477,1.815.91,9.653.91,9.653s0,21.689-1.065,23.166a56.469,56.469,0,0,0-3.138,6.018s6.086,5.416,1.3,8.148l-.052.029c-4.884,2.725-14.99-4.878-14.99-4.878l1.054-1.053.309-.309-1.145-1.821c-1.174-2.044,3.435-5.9,3.435-5.9s-1.225-4.769-.773-5,.773-4.546.773-4.546-1.117-15.671-.664-17.142a2.291,2.291,0,0,0-.538-1.958,4.889,4.889,0,0,1-.87-3.04,3.618,3.618,0,0,0-.744-2.611c-1.363-1.477,0-7.838,0-7.838l1.145-8.405V261.448a21.185,21.185,0,0,1,1.374-7.512,22.675,22.675,0,0,0,1.237-6.046c.372-4.306,2.685-8.491,4.243-10.879.824-1.26,1.437-2.015,1.437-2.015l36.34-1.426s.573,1.62,1.145,3.871c.126.492.252,1.008.367,1.552.761,3.493,1.219,7.815-.321,10.255a8.078,8.078,0,0,0-.573,1.025c-2.078,4.426-.659,9.985-.659,9.985s-1.815,12.6-2.611,14.652c-.573,1.449-.046,3.47.309,4.523a5.032,5.032,0,0,1,.258,1.569v4.472s.91,3.745.458,4.769.779,3.865.779,3.865Z" transform="translate(-349.984 -99.835)" fill="#45b9d7"/>
    <path id="Path_170" data-name="Path 170" d="M898.813,253.855a9.41,9.41,0,0,0-.573,1.025l-2.044-.114c.195-1.054-1.2-10.93-1.2-10.93l4.122-.235C899.889,247.116,900.353,251.444,898.813,253.855Z" transform="translate(-382.551 -104.122)" opacity="0.1"/>
    <path id="Path_171" data-name="Path 171" d="M899.4,253.3a8.079,8.079,0,0,0-.572,1.025l-2.05-.115c.2-1.053-1.191-10.936-1.191-10.936l4.117-.229C900.485,246.543,900.943,250.865,899.4,253.3Z" transform="translate(-382.803 -103.887)" fill="#444053"/>
    <path id="Path_172" data-name="Path 172" d="M899.4,253.3a8.079,8.079,0,0,0-.572,1.025l-2.05-.115c.2-1.053-1.191-10.936-1.191-10.936l4.117-.229C900.485,246.543,900.943,250.865,899.4,253.3Z" transform="translate(-382.803 -103.887)" opacity="0.05"/>
    <path id="Path_173" data-name="Path 173" d="M882.9,418.694a1.346,1.346,0,0,1-.647.573c-1.523.641-7.145-2.2-10.346-3.951a1.763,1.763,0,0,1-.847-1.013c1.821-.332,3.017,1.718,3.017,1.718a2.685,2.685,0,0,1,3.744.91c1.563,2.29,4.913,1.328,4.913,1.328S882.8,418.414,882.9,418.694Z" transform="translate(-372.318 -177.072)" opacity="0.1"/>
    <path id="Path_174" data-name="Path 174" d="M873.113,425.905c-.344,1.019-2.9,1.019-2.9,1.019a54.41,54.41,0,0,0-6.619,2.33,4.525,4.525,0,0,1-3.435.481c-4.689,1.082-10.707-.79-12.522-1.145s-2.531-2.725-.286-3.178a4.49,4.49,0,0,0,.842-.258,6.838,6.838,0,0,0,2.794-2.29,57.936,57.936,0,0,1,4.781-4.123,13.835,13.835,0,0,0,3-3.035c2.668-2.359,4.58.882,4.58.882a2.685,2.685,0,0,1,3.745.91c1.563,2.29,4.913,1.328,4.913,1.328s.573,1.534.882,2.64c.069.28.143.635.206,1.025A8.96,8.96,0,0,1,873.113,425.905Z" transform="translate(-361.586 -177.32)" fill="#ff748f"/>
    <circle id="Ellipse_29" data-name="Ellipse 29" cx="0.315" cy="0.315" r="0.315" transform="translate(503.402 240.775)" fill="#575988"/>
    <circle id="Ellipse_30" data-name="Ellipse 30" cx="0.315" cy="0.315" r="0.315" transform="translate(500.734 243.272)" fill="#575988"/>
    <circle id="Ellipse_31" data-name="Ellipse 31" cx="0.315" cy="0.315" r="0.315" transform="translate(498.02 245.516)" fill="#575988"/>
    <circle id="Ellipse_32" data-name="Ellipse 32" cx="0.315" cy="0.315" r="0.315" transform="translate(499.423 244.514)" fill="#575988"/>
    <circle id="Ellipse_33" data-name="Ellipse 33" cx="0.315" cy="0.315" r="0.315" transform="translate(502.126 241.943)" fill="#575988"/>
    <path id="Path_175" data-name="Path 175" d="M873.113,431.612c-.344,1.019-2.9,1.019-2.9,1.019a54.4,54.4,0,0,0-6.619,2.33,4.525,4.525,0,0,1-3.435.481c-4.689,1.082-10.707-.79-12.522-1.145s-2.531-2.725-.286-3.178a4.49,4.49,0,0,0,.842-.258,21.757,21.757,0,0,0,6.144,1.145c4.626.195,8.291,0,8.291,0l4.684-1.506a7.838,7.838,0,0,1,2.9-1.053,7.443,7.443,0,0,0,2.863-1.248,8.959,8.959,0,0,1,.04,3.412Z" transform="translate(-361.586 -183.027)" fill="#dce6f2"/>
    <path id="Path_176" data-name="Path 176" d="M872.449,436.11a3.863,3.863,0,0,1-.779-.08l.069-.332a4.918,4.918,0,0,0,2.806-.389,13.482,13.482,0,0,0,1.242-.573,14.409,14.409,0,0,1,1.477-.647l.464-.16c.258-.086.515-.172.761-.28.143-.057.281-.126.418-.189a4.66,4.66,0,0,1,1.054-.4,4.884,4.884,0,0,1,.573-.074,4.871,4.871,0,0,0,.515-.063,4.474,4.474,0,0,0,.985-.366,4.779,4.779,0,0,1,1.059-.389l.252-.046a1.209,1.209,0,0,0,.733-.269l.246.235a1.528,1.528,0,0,1-.927.372l-.235.04a4.474,4.474,0,0,0-.985.366,4.781,4.781,0,0,1-1.059.389,3.767,3.767,0,0,1-.573.069,4.984,4.984,0,0,0-.533.069,4.33,4.33,0,0,0-.973.378l-.429.195c-.263.109-.527.2-.79.286l-.452.16c-.492.183-.979.412-1.454.63s-.83.4-1.26.573a6.058,6.058,0,0,1-2.2.5Z" transform="translate(-372.579 -184.588)" fill="#575988" opacity="0.5"/>
    <path id="Path_177" data-name="Path 177" d="M854,231.815a8.259,8.259,0,0,1,6.39-3.378,21.875,21.875,0,0,0,5.76-.452,14.3,14.3,0,0,1-4.369,1.718A73.826,73.826,0,0,0,854,231.815Zm1.363.8a9.493,9.493,0,0,1,3.349-1.534c1.219-.057,2.29-.172,2.29-.172a6.472,6.472,0,0,1-1.872.91c-1.042.286-3.767.8-3.767.8Zm.452,1.019s3.212.258,3.241,1.111M825.94,185.753c.166.029,3.029-2.983,3.229-4.174a2.92,2.92,0,0,1,1.248-1.832s1.849.739.2,3a9.17,9.17,0,0,1-4.678,3.006Zm43.984-97.4c-.653,1.546-1.231,1.66-1.105,3.161a11.387,11.387,0,0,1-2.6,2.044c-2.033,1.208-4.243,3.567-6.773,3.567a13.426,13.426,0,0,1-4.947-.933,8.955,8.955,0,0,0-1.609-4.58S872.89,81.352,869.924,88.354Z" transform="translate(-353.032 -36.719)" opacity="0.1"/>
    <path id="Path_178" data-name="Path 178" d="M887.892,70.551A13.541,13.541,0,1,1,874.351,57.01,13.541,13.541,0,0,1,887.892,70.551Z" transform="translate(-367.937 -24.366)" fill="#cc818c"/>
    <path id="Path_179" data-name="Path 179" d="M841,93.364l-4.34,6.476s-20.532,9.791-16.6-1.718c1.718-5.067,1.93-8.777,1.62-11.342h.034a10.745,10.745,0,0,1,.407,2.611c.063,1.763.109,4.008,4.494,4.741a12.25,12.25,0,0,0,11.927-4.243A21.187,21.187,0,0,0,841,93.364ZM754.589,65.881l-2.714,5.273a10.506,10.506,0,0,1-2.531-.527l-.235-.281c1.111.424,4.855-6.647,4.855-6.647l.12.1C754.395,65.028,754.589,65.881,754.589,65.881Zm82.157,98.956c-8.766,3.808-39.1.573-39.1.573a3.822,3.822,0,0,0,.155-.991c.825-1.26,1.437-2.015,1.437-2.015l36.341-1.426S836.168,162.587,836.746,164.837Z" transform="translate(-320.192 -27.226)" opacity="0.1"/>
    <path id="Path_180" data-name="Path 180" d="M822.014,87.351l-4.042,1.718a3.229,3.229,0,0,1-2.9-1.878c-.933-1.958-4.254,0-4.254,0s-10.14-.767-13.885,1.111c0,0-6.046-2.559-6.871-2.725s-2.13-.853-2.725-.681-1.363-1.111-1.786-1.025-.6-.853-1.964-1.191-1.872.086-3.407-1.449-13.965-7.581-13.965-7.581l-5.623-4.58-5.96-4.769s-3.75,7.065-4.855,6.642l11.325,13.627s8.176,7.157,13.8,9.453S780.1,97,780.1,97s17.039,8.686,19.679,8.52,2.13,17.8,1.019,20.7S797.9,150.07,797.9,150.07s-1.718,4.426.08,7.495c0,0,.429,6.3,0,7.409,0,0,30.523,3.264,39.18-.573,0,0,1.277-14.137,0-15.929s1.2-5.789,1.2-5.789l5.411-12.207L857.044,117.1s2.044-11.159-7.065-18.322l-6.052-5.365s-3.384-2.926-4.369-3.109-.624,0-.624,0a12.25,12.25,0,0,1-12.024,4.386c-4.386-.739-4.432-2.972-4.495-4.741a10.751,10.751,0,0,0-.4-2.594Z" transform="translate(-320.478 -27.482)" fill="#fff"/>
    <path id="Path_181" data-name="Path 181" d="M866.332,152.214s-18.74.767-22.484,6.647c0,0,4.855-2.29,9.2-1.62S866.332,152.214,866.332,152.214Zm-20.7,20.538s8.857.573,10.736-1.277,1.878-2.977,1.878-2.977Zm22.484-38.591s-7.495,8.858,1.62,12.688Zm-44.373-17.12s2.725,5.56,4.088,5.932Zm-9.2-2.388s6.813,6.132,8.09,6.728c0,0-7.071-6.728-8.09-6.728Zm27.168-5.874s-6.562,9.791-2.29,15.757C839.393,124.537,837.034,117.466,841.718,108.78Z" transform="translate(-348.164 -46.495)" opacity="0.1"/>
    <path id="Path_182" data-name="Path 182" d="M875.015,234.281l-2,1.884-.281.263-2.319,2.193c-.172.126-.332.252-.5.366-9.447,6.773-11.342-3.516-11.342-3.516s-4.174,2.725-4.769.51,9.734-5.365,11.239-5.193a1.993,1.993,0,0,0,.412,0,6.476,6.476,0,0,0,2.119-.75c.155-.08.309-.16.458-.246a16.947,16.947,0,0,0,1.529-.962Z" transform="translate(-364.931 -97.809)" fill="#cc818c"/>
    <path id="Path_183" data-name="Path 183" d="M891.373,70.55a13.542,13.542,0,0,1-6.621,11.641,7.9,7.9,0,0,1-.491-.986c-.487-1.145-.784-2.342-1.271-3.475a10.843,10.843,0,0,0-2.29-3.315,1.448,1.448,0,0,0-.573-.418,1.643,1.643,0,0,0-1.242.344,5.623,5.623,0,0,1-1.889.83,2.01,2.01,0,0,1-1.9-.573,2.841,2.841,0,0,1-.3-2.365,29.357,29.357,0,0,0,.882-5.285,5.213,5.213,0,0,0-2.233-4.615c-1.374-.779-3.08-.573-4.609-1a4.96,4.96,0,0,1-.693-.24,13.547,13.547,0,0,1,23.24,9.459Z" transform="translate(-371.074 -24.365)" opacity="0.1"/>
    <path id="Path_184" data-name="Path 184" d="M866.181,55c-.246.132-.515.366-.441.641a.631.631,0,0,0,.246.315,5.863,5.863,0,0,0,2.141,1.1c1.529.412,3.241.218,4.615,1a5.2,5.2,0,0,1,2.233,4.609,30.874,30.874,0,0,1-.888,5.285,2.863,2.863,0,0,0,.3,2.37,2.021,2.021,0,0,0,1.9.573,5.582,5.582,0,0,0,1.884-.824,1.632,1.632,0,0,1,1.242-.344,1.512,1.512,0,0,1,.607.412,10.752,10.752,0,0,1,2.29,3.321c.492,1.145.79,2.336,1.271,3.475a5.606,5.606,0,0,0,2.29,2.828,2.863,2.863,0,0,0,3.435-.361c.79-.87.767-2.187,1.145-3.3.676-1.93,2.565-3.143,3.745-4.81,1.328-1.872,1.718-4.237,2.056-6.5a5.464,5.464,0,0,0,.034-2.176,7.88,7.88,0,0,0-.6-1.374c-1.317-2.725-1.288-6.155-3.39-8.336-1.58-1.632-3.974-2.13-6.229-2.4s-4.621-.447-6.556-1.632a7.214,7.214,0,0,0-1.775-.985,1.46,1.46,0,0,0-1.746.653,1.144,1.144,0,0,1-.235.475.744.744,0,0,1-.664.04l-3-.807.344,1.512a7.49,7.49,0,0,1-3.184-.573c-.057.853.9,1.408,1.2,2.2a2.039,2.039,0,0,1-.573,2.078C868.769,54.544,867.407,54.332,866.181,55Z" transform="translate(-370.039 -20.429)" fill="#585268"/>
    <path id="Path_185" data-name="Path 185" d="M833.971,412.42l-.12,1.363-.052.029c-4.884,2.725-14.99-4.878-14.99-4.878l1.054-1.054a1.832,1.832,0,0,1,.458,1.42l2.067.115,2.468,2.668s6.682.773,8.491.338Z" transform="translate(-349.984 -174.342)" opacity="0.1"/>
    <path id="Path_186" data-name="Path 186" d="M819.323,419.81c-3.178.7-14.314.653-14.314.653l-6.218.991s-10.7,1.025-11.892-2.29.933-3.12.933-3.12h.08l4.455-.361s5.651-2.187,7.724-3.693a44.566,44.566,0,0,0,4.626-4.145s1.861-.361,1.827,1.792l2.067.115,2.468,2.662s6.682.779,8.491.344h.624l-.286,3.292.08.1C820.383,416.66,822.163,419.174,819.323,419.81Z" transform="translate(-336.19 -174.316)" fill="#ff748f"/>
    <circle id="Ellipse_34" data-name="Ellipse 34" cx="0.315" cy="0.315" r="0.315" transform="translate(471.287 236.905)" fill="#575988"/>
    <circle id="Ellipse_35" data-name="Ellipse 35" cx="0.315" cy="0.315" r="0.315" transform="translate(463.283 240.38)" fill="#575988"/>
    <circle id="Ellipse_36" data-name="Ellipse 36" cx="0.315" cy="0.315" r="0.315" transform="translate(459.161 241.634)" fill="#575988"/>
    <circle id="Ellipse_37" data-name="Ellipse 37" cx="0.315" cy="0.315" r="0.315" transform="translate(465.384 239.716)" fill="#575988"/>
    <circle id="Ellipse_38" data-name="Ellipse 38" cx="0.315" cy="0.315" r="0.315" transform="translate(461.216 241.01)" fill="#575988"/>
    <circle id="Ellipse_39" data-name="Ellipse 39" cx="0.315" cy="0.315" r="0.315" transform="translate(467.509 238.731)" fill="#575988"/>
    <circle id="Ellipse_40" data-name="Ellipse 40" cx="0.315" cy="0.315" r="0.315" transform="translate(469.61 237.821)" fill="#575988"/>
    <path id="Path_187" data-name="Path 187" d="M819.323,425.946c-3.178.7-14.314.653-14.314.653l-6.218.991s-10.7,1.025-11.892-2.29.933-3.12.933-3.12h.08c.681.882,2.05,1.889,4.741,1.935l7.7.315,7.976-.573s7.443-.229,8.686-.481a18.044,18.044,0,0,0,2.977-1.094C820.383,422.8,822.163,425.31,819.323,425.946Z" transform="translate(-336.19 -180.453)" fill="#dce6f2"/>
    <path id="Path_188" data-name="Path 188" d="M808,428.166a5.026,5.026,0,0,1-1.26-.155l.115-.309a6.178,6.178,0,0,0,3.172-.143c.378-.1.75-.206,1.145-.321a12.987,12.987,0,0,1,5.525-.624h.246a52.3,52.3,0,0,0,10.22-.458,3.8,3.8,0,0,0,2.187-.876l.246.241a4.146,4.146,0,0,1-2.376.973,53.082,53.082,0,0,1-10.306.458h-.24a16.7,16.7,0,0,0-3.384.1,17.582,17.582,0,0,0-2.033.51c-.378.115-.756.229-1.145.326A8.516,8.516,0,0,1,808,428.166Z" transform="translate(-344.825 -181.779)" fill="#575988" opacity="0.5"/>
    <path id="Path_189" data-name="Path 189" d="M885.655,234.281l-2,1.884-4.981-6.373a16.954,16.954,0,0,0,1.529-.962Z" transform="translate(-375.571 -97.809)" opacity="0.1"/>
    <path id="Path_190" data-name="Path 190" d="M907.963,147.01l3.916,5.451v5.726a23.842,23.842,0,0,1,0,12.1l.2,5.279s-1.9,4.855-1.22,6.046c0,0-.344,3.579-4.941,6.052s-9.8,8.3-9.8,8.3-1.958,3.75-7.237,2.9l-5.027,2.13-5.789-7.409,7.833-4.26s2.725-3.664,4.346-3.493l6.642-7.735s.172-2.468,1.872-2.468c0,0-3.149-2.554-2.044-4.088s.172-8.348.172-8.348Z" transform="translate(-375.314 -62.836)" fill="#fff"/>
    <path id="Path_191" data-name="Path 191" d="M898.969,190.3s8.943-.166,10.048,2.13S901.694,189.022,898.969,190.3Zm-17.492,29.132a2.349,2.349,0,0,1-.034.447,3.011,3.011,0,0,1-2.817,2.559h-.16a3.006,3.006,0,0,1-3.006-3.006,3.086,3.086,0,0,1,.166-.979c-1.42-1.145-1.494-3.195-1.46-4.22a6.476,6.476,0,0,0,2.119-.75,14.087,14.087,0,0,0,1.483,3.029,2.861,2.861,0,0,1,.7-.086,3.006,3.006,0,0,1,3.012,3.006Z" transform="translate(-373.643 -81.259)" opacity="0.1"/>
    <path id="Path_192" data-name="Path 192" d="M876.807,229.77s-2.016.452-2.016.819-.452,3.693,1.758,5.056,1.992-1.9,1.992-1.9S876.635,230.818,876.807,229.77Z" transform="translate(-373.897 -98.211)" fill="#575988"/>
    <circle id="Ellipse_41" data-name="Ellipse 41" cx="3.012" cy="3.012" r="3.012" transform="translate(502.154 135.161)" fill="#e4aab4"/>
    <circle id="Ellipse_42" data-name="Ellipse 42" cx="2.582" cy="2.582" r="2.582" transform="translate(502.584 135.59)" fill="#dce6f2"/>
    <path id="Path_193" data-name="Path 193" d="M861.765,243.35a14.915,14.915,0,0,0,14.537,1.935v2.554s-5.451,3.745-10.392,1.477S861.765,243.35,861.765,243.35Z" transform="translate(-368.325 -104.015)" opacity="0.1"/>
    <path id="Path_194" data-name="Path 194" d="M861.765,242.16a14.9,14.9,0,0,0,14.537,1.918v2.554s-5.451,3.745-10.392,1.477S861.765,242.16,861.765,242.16Z" transform="translate(-368.325 -103.507)" opacity="0.1"/>
    <path id="Path_195" data-name="Path 195" d="M861.765,242.16a14.9,14.9,0,0,0,14.537,1.918v2.554s-5.451,3.745-10.392,1.477S861.765,242.16,861.765,242.16Z" transform="translate(-368.325 -103.507)" fill="#444053"/>
    <path id="Path_196" data-name="Path 196" d="M862.066,242.16A14.915,14.915,0,0,0,876.6,244.1v2.554s-5.468,3.727-10.392,1.477S862.066,242.16,862.066,242.16Z" transform="translate(-368.455 -103.507)" opacity="0.05"/>
    <path id="Path_197" data-name="Path 197" d="M826.773,380.125s8.52,1.563,9.768,1.9-.344.939-.344.939S828.394,381.574,826.773,380.125Zm-.223-4.512c.137,0,5.789-1.592,7.008-4.317m1.231-28.279s2.29,3.012,3.768,2.926S836.135,342.9,834.789,343.018Zm1.271,5s.962,2.13,2.382,1.449" transform="translate(-353.293 -146.616)" opacity="0.1"/>
    <path id="Path_198" data-name="Path 198" d="M852.53,270.062l6.041,15.929s.853-10.249-.951-13.318A5.319,5.319,0,0,0,852.53,270.062Z" transform="translate(-364.398 -115.423)" opacity="0.05"/>
    <g id="Group_16" data-name="Group 16" transform="translate(495.627 27.937)" opacity="0.1">
      <path id="Path_199" data-name="Path 199" d="M872.995,49.277l-.052-.229-.973-.258.109.475A6.973,6.973,0,0,0,872.995,49.277Zm-2.668,3.83.1-.092A2.032,2.032,0,0,0,871,50.943a2.81,2.81,0,0,0-.481-.773,7.445,7.445,0,0,1-1.4-.412c-.057.853.9,1.4,1.2,2.2a1.717,1.717,0,0,1,.006,1.145ZM886.416,79.29a5.628,5.628,0,0,1-2.29-2.828c-.487-1.145-.779-2.348-1.271-3.475a10.679,10.679,0,0,0-2.29-3.315,1.449,1.449,0,0,0-.6-.418,1.626,1.626,0,0,0-1.242.344,5.726,5.726,0,0,1-1.889.83,2.044,2.044,0,0,1-1.9-.573,2.841,2.841,0,0,1-.3-2.365,29.431,29.431,0,0,0,.887-5.29,5.114,5.114,0,0,0-2.239-4.58c-1.374-.784-3.08-.573-4.58-1a5.819,5.819,0,0,1-2.141-1.1l-.12-.109a3.665,3.665,0,0,0-.372.177c-.246.132-.51.366-.441.636a.681.681,0,0,0,.252.321,5.9,5.9,0,0,0,2.141,1.094c1.529.418,3.235.223,4.609,1.008a5.184,5.184,0,0,1,2.239,4.58,30.782,30.782,0,0,1-.888,5.285,2.849,2.849,0,0,0,.3,2.365,2.015,2.015,0,0,0,1.9.573,5.727,5.727,0,0,0,1.89-.824,1.654,1.654,0,0,1,1.242-.349,1.507,1.507,0,0,1,.573.418,10.81,10.81,0,0,1,2.29,3.315c.492,1.145.784,2.342,1.271,3.475a5.617,5.617,0,0,0,2.29,2.863,2.9,2.9,0,0,0,3.435-.361,2.7,2.7,0,0,0,.51-.853,2.92,2.92,0,0,1-3.264.16Zm4.89-4.323c.853-1.076,1.97-1.993,2.771-3.126a7.981,7.981,0,0,0,.441-.7C893.487,72.454,892.073,73.513,891.305,74.967Z" transform="translate(-865.621 -48.79)"/>
    </g>
    <g id="Group_18" data-name="Group 18" transform="translate(328.233 38.026)" opacity="0.1">
      <path id="Path_200" data-name="Path 200" d="M715.811,66.41H580.343a7.1,7.1,0,0,0-7.083,7.077v85.592a7.1,7.1,0,0,0,7.083,7.077H686.61s2.754,14.617-6.3,16.186c0,0,20.257,1.454,16.719-16.186H715.8a7.094,7.094,0,0,0,7.077-7.077V73.487a7.094,7.094,0,0,0-7.071-7.077Z" transform="translate(-573.26 -66.41)"/>
      <g id="Group_17" data-name="Group 17" transform="translate(19.942 22.719)" opacity="0.2">
        <rect id="Rectangle_13" data-name="Rectangle 13" width="109.737" height="6.688" rx="3.344"/>
        <rect id="Rectangle_14" data-name="Rectangle 14" width="90.551" height="6.688" rx="3.344" transform="translate(0 29.888)"/>
        <rect id="Rectangle_15" data-name="Rectangle 15" width="65.186" height="6.688" rx="3.344" transform="translate(0 14.944)"/>
      </g>
    </g>
    <path id="Path_201" data-name="Path 201" d="M718.9,64.34H583.433a7.105,7.105,0,0,0-7.083,7.083v85.592a7.1,7.1,0,0,0,7.083,7.077H689.7s2.754,14.617-6.3,16.186c0,0,20.257,1.454,16.719-16.186h18.774a7.094,7.094,0,0,0,7.077-7.077V71.423A7.1,7.1,0,0,0,718.9,64.34Z" transform="translate(-246.348 -27.5)" fill="url(#linear-gradient-3)"/>
    <g id="Group_19" data-name="Group 19" transform="translate(349.945 59.56)" opacity="0.2">
      <rect id="Rectangle_16" data-name="Rectangle 16" width="109.737" height="6.688" rx="3.344" fill="#bbb8fa"/>
      <rect id="Rectangle_17" data-name="Rectangle 17" width="90.551" height="6.688" rx="3.344" transform="translate(0 29.893)" fill="#bbb8fa"/>
      <rect id="Rectangle_18" data-name="Rectangle 18" width="65.186" height="6.688" rx="3.344" transform="translate(0 14.95)" fill="#bbb8fa"/>
    </g>
    <path id="Path_202" data-name="Path 202" d="M76.936,552.99s2.038,2.668-.945,6.7-5.445,7.443-4.449,9.945c0,0,4.5-7.483,8.165-7.586S80.966,557.49,76.936,552.99Z" transform="translate(-30.477 -236.368)" fill="#bbb8fa"/>
    <path id="Path_203" data-name="Path 203" d="M77.022,552.99a3.367,3.367,0,0,1,.412.836c3.579,4.2,5.479,8.119,2.044,8.222-3.2.092-7.037,5.812-7.959,7.26a1.044,1.044,0,0,0,.109.326s4.5-7.483,8.165-7.586S81.053,557.49,77.022,552.99Z" transform="translate(-30.564 -236.368)" opacity="0.1"/>
    <path id="Path_204" data-name="Path 204" d="M87.4,558.476c0,.939-.1,1.718-.235,1.718s-.235-.762-.235-1.718.132-.5.263-.5.206-.441.206.5Z" transform="translate(-37.151 -238.453)" fill="#ffd037"/>
    <path id="Path_205" data-name="Path 205" d="M88.826,560.412c-.824.452-1.546.721-1.609.607s.573-.573,1.38-1.019.5-.12.573,0,.481-.034-.344.412Z" transform="translate(-37.271 -239.266)" fill="#ffd037"/>
    <path id="Path_206" data-name="Path 206" d="M58.871,552.99s-2.038,2.668.945,6.7,5.445,7.443,4.449,9.945c0,0-4.5-7.483-8.165-7.586S54.841,557.49,58.871,552.99Z" transform="translate(-23.2 -236.368)" fill="#bbb8fa"/>
    <path id="Path_207" data-name="Path 207" d="M58.871,552.99a3.366,3.366,0,0,0-.412.836c-3.579,4.2-5.479,8.119-2.044,8.222,3.2.092,7.037,5.812,7.959,7.26-.029.109-.069.218-.109.326,0,0-4.5-7.483-8.165-7.586S54.841,557.49,58.871,552.99Z" transform="translate(-23.2 -236.368)" opacity="0.1"/>
    <path id="Path_208" data-name="Path 208" d="M55.67,558.476c0,.939.1,1.718.235,1.718s.235-.762.235-1.718-.132-.5-.263-.5S55.67,557.537,55.67,558.476Z" transform="translate(-23.789 -238.453)" fill="#ffd037"/>
    <path id="Path_209" data-name="Path 209" d="M53.01,560.412c.824.452,1.546.721,1.609.607s-.573-.573-1.38-1.019-.5-.12-.573,0-.487-.034.344.412Z" transform="translate(-22.434 -239.266)" fill="#ffd037"/>
    <ellipse id="Ellipse_43" data-name="Ellipse 43" cx="21.345" cy="3.275" rx="21.345" ry="3.275" transform="translate(19.72 347.14)" fill="#bbb8fa" opacity="0.1"/>
    <path id="Path_210" data-name="Path 210" d="M74.515,574.852l-.1.83-.143,1.18-.063.492-.143,1.174-.057.492-.143,1.18-1.638,13.392c-.143,1.2-2.1,2.13-4.455,2.13H59.262c-2.359,0-4.306-.933-4.455-2.13L53.17,580.206l-.143-1.18-.057-.492-.143-1.174-.063-.492-.143-1.18-.1-.83c-.08-.676.979-1.248,2.29-1.248H72.161C73.513,573.6,74.572,574.177,74.515,574.852Z" transform="translate(-22.439 -245.181)" fill="#65617d"/>
    <path id="Path_211" data-name="Path 211" d="M74.463,577.23l-.143,1.179H52.843L52.7,577.23Zm-.2,1.672-.143,1.174H53.049L52.9,578.9Zm-.206,1.666-.143,1.179H53.25l-.143-1.179Z" transform="translate(-22.519 -246.729)" fill="#9d9cb5"/>
    <ellipse id="Ellipse_44" data-name="Ellipse 44" cx="48.118" cy="7.896" rx="48.118" ry="7.896" transform="translate(321.643 444.057)" fill="#bbb8fa" opacity="0.1"/>
    <g id="Group_21" data-name="Group 21" transform="translate(271.023 209.485)" opacity="0.1">
      <path id="Path_212" data-name="Path 212" d="M627.811,365.87h-146.8a7.7,7.7,0,0,0-7.672,7.672V466.3a7.7,7.7,0,0,0,7.672,7.672H596.172s2.983,15.837-6.819,17.538c0,0,21.946,1.575,18.11-17.538h20.349a7.7,7.7,0,0,0,7.672-7.672V373.542A7.7,7.7,0,0,0,627.811,365.87Z" transform="translate(-473.34 -365.87)"/>
      <g id="Group_20" data-name="Group 20" transform="translate(21.608 40.818)" opacity="0.2">
        <rect id="Rectangle_19" data-name="Rectangle 19" width="118.921" height="7.249" rx="3.624" transform="translate(0 16.198)"/>
        <rect id="Rectangle_20" data-name="Rectangle 20" width="51.565" height="7.249" rx="3.624"/>
      </g>
    </g>
    <path id="Path_213" data-name="Path 213" d="M625.6,363.64H478.772a7.7,7.7,0,0,0-7.672,7.672v92.755a7.7,7.7,0,0,0,7.672,7.672H593.932s2.983,15.837-6.819,17.543c0,0,21.952,1.575,18.116-17.543H625.6a7.7,7.7,0,0,0,7.672-7.672V371.312A7.7,7.7,0,0,0,625.6,363.64Z" transform="translate(-201.36 -155.432)" fill="url(#linear-gradient-4)"/>
    <g id="Group_22" data-name="Group 22" transform="translate(291.354 249.026)" opacity="0.2">
      <rect id="Rectangle_21" data-name="Rectangle 21" width="118.921" height="7.249" rx="3.624" transform="translate(0 16.198)" fill="#fff"/>
      <rect id="Rectangle_22" data-name="Rectangle 22" width="51.565" height="7.249" rx="3.624" fill="#fff"/>
    </g>
    <path id="Path_214" data-name="Path 214" d="M664.524,634.807c-.693-2.937-1.145-5.52-1.145-5.52a11.376,11.376,0,0,0-1.277-5.605v-6.716a19.837,19.837,0,0,1,1.494-3.1c1.065-1.861,0-8.674,0-8.674s-3.951-9.608-2.989-15.7-8.113-27.065-8.113-27.065a26.624,26.624,0,0,1,.853-5.989,4.63,4.63,0,0,0,.115-1.254,1.332,1.332,0,0,0,0-.155v.052c-.137-4.008-3.315-11.554-3.315-11.554l.429-14.354s2.027-8.468-1.283-19.834c-1.145-3.962-1.9-7.14-2.365-9.585-.052-.281-.1-.573-.149-.8,6.813-1.036,12.024-1.9,12.024-1.9s-3.939-16.53-6.607-19.393-4.8-12.024-4.8-12.024-1.391-11.675.853-15.081,2.559-9.293,2.559-9.293,5.153-3.722,5.766-5.371a28.422,28.422,0,0,0,1.718-7.335c0-1.964-.641-3.722-.429-4.752s-1.494-4.958-.641-6.819a5.011,5.011,0,0,0,.343-1.792v-.052a25.318,25.318,0,0,0-.452-4.844,13.741,13.741,0,0,0-5.067-2.708l-.115-.447L651.647,406c-.172-.115-.338-.212-.5-.3v-.424l-.052-1.678.807-3.767c1.575-6.561-7.18-7.541-7.18-7.541a4.58,4.58,0,0,0-2.479-2.17c-1.763-.618-.292,9.865.533,10.535a38.024,38.024,0,0,1,3.435,5.4l.149.269a3.218,3.218,0,0,0-.4.418l.332,2.29.052.349a9.536,9.536,0,0,0-1.4,2.382,5.086,5.086,0,0,1,1.283,3.722,11.315,11.315,0,0,0,.527,4.54c-.092-.109-1.22-1.328-2.342-1.031s-4.271,1.242-4.271,1.242-2.347.412-2.13.928-1.6,2.788-1.6,2.788l-6.3-5.978c-.057-.178-.126-.355-.183-.544a15,15,0,0,1-.573-2.617,14.973,14.973,0,0,0,2.015-.641,4.362,4.362,0,0,0,1.718-1.116,6.794,6.794,0,0,0,1.013-2.72,39.356,39.356,0,0,1,2.342-5.222,16.948,16.948,0,0,0,1.26-9.373,6.191,6.191,0,0,0-.968-2.743c-1.031-1.42-2.9-1.993-4.26-3.126s-2.233-2.863-3.813-3.7a7.592,7.592,0,0,0-4.792-.412,25.816,25.816,0,0,0-8.938,3.252,4.6,4.6,0,0,1-2.989.985,4.028,4.028,0,0,1-2.159-1.586.105.105,0,0,1,.029-.086l-.069-.08a11.09,11.09,0,0,0-.933,4.678,6.672,6.672,0,0,0,.029.756v.481a1.146,1.146,0,0,1-.046.338,2.463,2.463,0,0,1-.573.853,4.5,4.5,0,0,0-.515.7,2.309,2.309,0,0,1,.086-.258,3.75,3.75,0,0,0-.653,1.993,1.969,1.969,0,0,0,.469,1.42,6.876,6.876,0,0,0,1.031.83,12.024,12.024,0,0,0,5.726,12.5c.074.177.149.361.218.544a15.054,15.054,0,0,1,1.145,6.871,2.5,2.5,0,0,1-.08.5c-.034.166-.155.172-.223.263s-10.415.1-12.871-2.118-6.189,5.422-6.189,5.422-3.733.721-4.477,0-5.124-.1-5.124-.1a9.419,9.419,0,0,0-6.481-2.37,19.259,19.259,0,0,0-4.775-2.657l-.115-.04a5.37,5.37,0,0,0-2.347-.3s-5.124-4.237-6.619-6.5-8.588-10.7-8.64-10.741V400.9l-.08-1.231a4.061,4.061,0,0,1-.635.057c-.04-.12-.086-.263-.143-.424a23.787,23.787,0,0,0-1.512-3.475s0-1.546.452-1.935-.189-6.069-.189-6.069-4.615-10.793-8.749-2.737c0,0-7.816,5.216-1.254,11.285,0,0,2.617,1.265,2.983,2.29.246.653,1.145,2.473,1.718,3.682l.269.544-.074.063.1,1.013.04.389c-1.237.7-2.073,1.4-1.872,1.924a11.647,11.647,0,0,1,.75,2.788s9.035,11.337,10.209,16.2c0,0,24.328,14.457,32.333,15.488l-1.386,7.231a57.842,57.842,0,0,0-.321,5.886c.1,1.552-.962,8.588-.962,8.588s-1.386,10.306-2.559,11.772-.933,7.632-.933,7.632a52.186,52.186,0,0,1-1.6,8.777,23.009,23.009,0,0,0-.321,8.783s-4.054,9.293,5.657,2.995c0,0,4.769-.3,10.26-.487v.573c0,.7,0,1.471-.034,2.29-.074,5.325-.1,12.659.137,18.213.429,9.808,3.435,29.229,3.435,29.229v9.734a13.4,13.4,0,0,0-.281,2.788,18.178,18.178,0,0,0,2.628,9.768l.75,6.5s1.752,4.288,1.786,6.871a3.953,3.953,0,0,1-.074.624,4.441,4.441,0,0,0-.086,1c-.1,2.954,1.683,10.02,1.683,10.02s.1,7.128,1.145,7.541c.91.355-1.22,4.111-1.855,5.187a.38.38,0,0,0-.04-.206l-.132.218a4.992,4.992,0,0,0-.332,1.8,2.594,2.594,0,0,0,1.185,2.508c2.027,1.237,3.115,2.29,1.391,2.685a18.481,18.481,0,0,0-1.878.4l-.092-.241a1.145,1.145,0,0,0-.7,1.248,5.2,5.2,0,0,0,.636,2.416,27.551,27.551,0,0,0,2.863,5.268l.825-.092a4.415,4.415,0,0,1-.475.882,3.4,3.4,0,0,1-1.208,1.071,3.64,3.64,0,0,1-1.46.5,4.128,4.128,0,0,0-3.023,1.472c-1.065,1.38-1.718,3.252.372,4.9l7.632,2.634s13.123,1.718,12.43-1.242-1.145-5.525-1.145-5.525a11.635,11.635,0,0,0-1.065-5.222,6.98,6.98,0,0,0-.464-.767l.464-.052s.962-6.51,2.239-7.747c.3-.286.366-.5.292-.676.132-.355-.2-.573-.63-.681l-.092.258a6.255,6.255,0,0,0-1.277-.143s-.424-3.407.962-4.644a1.317,1.317,0,0,0,.269-1.013,5.7,5.7,0,0,0-.143-1.391l-.051.08a50.421,50.421,0,0,0-3.063-8.016s-.109-3.1.75-4.34-.109-16.833-.109-16.833.321-7.541-.641-11.05,1.174-7.644,1.174-7.644v-.229l.029-.052s-.052-.464-.126-1.185v.069c-.218-1.992-.624-5.611-.922-7.283-.429-2.376.1-13.741.1-13.741l1.924-4.855,3.435,8.371,3.63,11.154a9.489,9.489,0,0,1,1.838,4.741,2.35,2.35,0,0,1,0,.349,6.724,6.724,0,0,0-.04.75,6.607,6.607,0,0,0,1.1,3.968s.962,5.268,2.456,6.613a5.956,5.956,0,0,1,1.494,3.922s1.809,7.644,2.668,8.989c.716,1.145.756,4.243.75,5.193v.281s.252,2.731.24,5.027v.819a.253.253,0,0,1,0-.063,8.391,8.391,0,0,1-.223,1.861.193.193,0,0,1-.034.109l.034-.389a19.675,19.675,0,0,0-.573,4.764c-.052,2.748.366,6,2.033,7.907,2.863,3.31,4.7,2.9,4.7,2.9s-1.386,4.128-3.1,4.953a.965.965,0,0,0-.177.12,1.781,1.781,0,0,0-.046-.24,2,2,0,0,0-.5,1.54,10.975,10.975,0,0,0,2.113,6.121,3.333,3.333,0,0,0,1.443.842l-.269.166a5.879,5.879,0,0,1-.573.281,2.762,2.762,0,0,1-.87.223,4.088,4.088,0,0,0-3.023,1.471c-1.065,1.374-1.718,3.246.372,4.9l7.632,2.634s13.037,1.683,12.344-1.265Z" transform="translate(-267.074 -188.225)" fill="url(#linear-gradient-5)"/>
    <path id="Path_215" data-name="Path 215" d="M600.082,774.975l-7.386-2.634c-2.038-1.649-1.386-3.521-.361-4.9a3.95,3.95,0,0,1,2.926-1.471,3.436,3.436,0,0,0,1.414-.5,3.317,3.317,0,0,0,1.145-1.071,5.4,5.4,0,0,0,.842-2.863s8.113-2.376,10.306,0a6.1,6.1,0,0,1,.985,1.437,12.025,12.025,0,0,1,1.031,5.222s.418,2.582,1.082,5.525-11.984,1.254-11.984,1.254Zm36.151-3.647-7.386-2.634c-2.038-1.649-1.391-3.521-.361-4.9a3.91,3.91,0,0,1,2.926-1.472,2.6,2.6,0,0,0,.842-.223,4.364,4.364,0,0,0,.573-.281c2.061-1.145,2.01-3.922,2.01-3.922s8.107-2.376,10.306,0a5.534,5.534,0,0,1,.773,1.053,11.682,11.682,0,0,1,1.242,5.611s.412,2.582,1.082,5.525S636.233,771.328,636.233,771.328Z" transform="translate(-252.765 -323.503)" fill="#2d293d"/>
    <path id="Path_216" data-name="Path 216" d="M613.851,761.543a6.1,6.1,0,0,1,.985,1.437l-12.155,1.409a5.4,5.4,0,0,0,.842-2.863s8.113-2.359,10.329.017Zm36.924-2.6v2.29c-1.884,3.115-11.028,2.433-13.684.87a4.366,4.366,0,0,0,.573-.281c2.061-1.145,2.01-3.922,2.01-3.922s8.107-2.376,10.306,0A5.531,5.531,0,0,1,650.775,758.944Z" transform="translate(-257.602 -323.503)" opacity="0.1"/>
    <path id="Path_217" data-name="Path 217" d="M643.111,653.257a21.065,21.065,0,0,0-1.449,3.1v8.159c-2.061,3.435-12.8,2.29-14.251.412s-2.994-6.71-1.34-7.535,2.994-4.958,2.994-4.958-1.758.412-4.546-2.891-1.964-10.638-1.443-12.4,0-7.644,0-7.644.1-4.128-.727-5.474-2.582-8.984-2.582-8.984,0-2.582-1.443-3.928-2.376-6.607-2.376-6.607a6.785,6.785,0,0,1-1.048-4.437c.315-2.582-1.752-5.37-1.752-5.37l-3.51-11.154-3.309-8.365-1.844,4.849s-.521,11.36-.1,13.741,1.031,8.674,1.031,8.674-2.067,4.134-1.145,7.644.618,11.05.618,11.05.928,15.6.1,16.833-.721,4.34-.721,4.34,4.231,9.087,2.863,10.306-.933,4.649-.933,4.649,2.863,0,1.655,1.237-2.113,7.764-2.113,7.764l-12.488,1.443a25.941,25.941,0,0,1-2.8-5.268c-1.655-3.825.309-3.435,1.975-3.819s.607-1.448-1.351-2.685-.83-4.008-.83-4.008,2.994-5.062,1.964-5.479-1.145-7.535-1.145-7.535-2.067-8.474-1.552-10.741-1.655-7.747-1.655-7.747l-.721-6.51a17.9,17.9,0,0,1-2.29-12.287V591.6s-2.863-19.416-3.3-29.229c-.263-6.3-.189-14.858-.1-20.211.052-3,.1-4.987.1-4.987l44.631-4.661a36.852,36.852,0,0,0,.807,6.625c.452,2.451,1.145,5.623,2.29,9.59,3.2,11.359,1.237,19.828,1.237,19.828l-.412,14.36s3.928,9.6,3.1,12.911a27.488,27.488,0,0,0-.825,5.989s8.777,20.967,7.85,27.059,2.863,15.7,2.863,15.7,1.059,6.825.029,8.686Z" transform="translate(-248.489 -227.614)" fill="url(#linear-gradient-6)"/>
    <path id="Path_218" data-name="Path 218" d="M644.65,648.069l13.587-1.809S650.542,654.11,644.65,648.069Z" transform="translate(-275.542 -276.235)" opacity="0.05"/>
    <path id="Path_219" data-name="Path 219" d="M637.067,611.672s.464,4.8-2.479,6.613C634.594,618.285,639.861,617.454,637.067,611.672Zm-.83-15.282s-11.354,9.344-15.459,8.588S636.237,596.39,636.237,596.39Zm-27.62,34.754s-8.623,1.958-8.88,5.422S608.616,631.144,608.616,631.144Z" transform="translate(-256.341 -254.918)" opacity="0.1"/>
    <path id="Path_220" data-name="Path 220" d="M611.584,732.31s-12.184,2.29-8.726,3.819a61.406,61.406,0,0,0,9.161,2.788S615.924,739.123,611.584,732.31Z" transform="translate(-257.414 -313.016)" opacity="0.05"/>
    <g id="Group_23" data-name="Group 23" transform="translate(332.861 309.259)" opacity="0.05">
      <path id="Path_221" data-name="Path 221" d="M591.464,656.446a2.428,2.428,0,0,1-1.111-1.769l-.126.218s-1.145,2.788.825,4.008c.229.143.441.286.635.424.367-.069.756-.12,1.145-.212C594.482,658.713,593.428,657.682,591.464,656.446Zm15.7-.83c.338-.309.326-1.105.12-2.124a5.76,5.76,0,0,0-.693,2.995A2.506,2.506,0,0,1,607.164,655.616Zm-1.872-51.382a13.89,13.89,0,0,0-.824,3.8,14.951,14.951,0,0,1,.945-2.611S605.366,604.955,605.292,604.234Zm27.924-5.422a4.755,4.755,0,0,0,.114-1.145c-.155.767-.263,1.483-.338,2.113A5.553,5.553,0,0,1,633.216,598.812Zm-28.222,42.141a6.584,6.584,0,0,0,.309-2.29,7.78,7.78,0,0,0-.573,2.9A2.8,2.8,0,0,1,604.994,640.952Zm2.559,19.473a40.649,40.649,0,0,0-1.42,6.344l-12.488,1.449a26.172,26.172,0,0,1-2.8-5.268c-.143-.338-.258-.635-.349-.91-.75.344-1.042,1.145-.063,3.39a26.416,26.416,0,0,0,2.794,5.268l12.5-1.449s.928-6.5,2.164-7.747c.6-.607.212-.916-.344-1.076Zm-16.5-18.545s.1,7.128,1.145,7.541c.521-1.179.87-2.29.406-2.485-1.036-.412-1.145-7.541-1.145-7.541s-2.061-8.468-1.546-10.741-1.655-7.747-1.655-7.747l-.721-6.5a17.881,17.881,0,0,1-2.29-12.293V592.09s-2.863-19.416-3.3-29.2c-.263-6.3-.189-14.887-.1-20.211,0-.968.029-1.827.046-2.548l-.355.034s-.057,1.987-.1,4.993c-.092,5.348-.166,13.925.1,20.206.412,9.814,3.3,29.229,3.3,29.229v10.02a17.881,17.881,0,0,0,2.29,12.293l.727,6.464s2.17,5.474,1.655,7.747,1.546,10.764,1.546,10.764Zm36.77,23.549a12.026,12.026,0,0,1-1.975-4.907c-1.277,1.145.189,5.617,1.563,7.386,1.443,1.855,12.184,2.995,14.251-.412v-1.97C638.867,668.3,629.208,667.187,627.822,665.429Zm15.7-11.669a20.034,20.034,0,0,0-1.448,3.1V658.3c.235-.532.573-1.237,1.036-2.073a6.175,6.175,0,0,0,.452-2.553A.348.348,0,0,0,643.522,653.76Zm-15.064,1.626a19.946,19.946,0,0,0,1.019-2.456s-1.758.412-4.546-2.863c-2.033-2.4-2.147-6.945-1.855-9.911-.521,1.752-1.346,9.086,1.443,12.39C626.345,654.682,627.719,655.249,628.458,655.386Zm-5.388-22.9a55.252,55.252,0,0,1,.206,6.121,8.889,8.889,0,0,1,.212-.962c.521-1.752,0-7.638,0-7.638s.1-4.134-.721-5.474-2.582-8.989-2.582-8.989,0-2.582-1.443-3.922-2.376-6.613-2.376-6.613a6.762,6.762,0,0,1-1.036-4.437c.309-2.582-1.752-5.371-1.752-5.371l-3.516-11.159-3.3-8.365L604.9,580.53s0,.613-.063,1.569l1.512-3.945,3.3,8.365,3.527,11.159s2.067,2.788,1.758,5.371a6.762,6.762,0,0,0,1.036,4.437s.927,5.268,2.37,6.613,1.448,3.922,1.448,3.922,1.758,7.644,2.582,8.989.7,5.474.7,5.474Z" transform="translate(-581.343 -540.13)"/>
    </g>
    <path id="Path_222" data-name="Path 222" d="M661.794,362.245l-.779,3.767.046,1.678.034,1.243-4.311.441-.481-.893a39.459,39.459,0,0,0-3.344-5.4c-.8-.67-2.216-11.154-.51-10.535a4.512,4.512,0,0,1,2.4,2.176S663.317,355.712,661.794,362.245Z" transform="translate(-278.532 -150.676)" fill="#ffcdd3"/>
    <path id="Path_223" data-name="Path 223" d="M664.572,379.928l-4.311.441-.481-.893a3.807,3.807,0,0,1,4.758-.784Z" transform="translate(-282.009 -161.648)" opacity="0.1"/>
    <path id="Path_224" data-name="Path 224" d="M665.476,382.246l-5.686,1.317-.115-.847-.326-2.29a3.91,3.91,0,0,1,5.5-.75l.281,1.145Z" transform="translate(-281.825 -161.928)" fill="#dce6f2"/>
    <path id="Path_225" data-name="Path 225" d="M499.014,356.73l-6.063,3.252-.573-1.145c-.573-1.208-1.437-3.029-1.672-3.682-.361-1-2.891-2.29-2.891-2.29-6.35-6.069,1.214-11.285,1.214-11.285,4.008-8.056,8.468,2.737,8.468,2.737s.618,5.686.183,6.069-.441,1.935-.441,1.935a23.525,23.525,0,0,1,1.466,3.475c.212.578.309.933.309.933Z" transform="translate(-207.419 -144.726)" fill="#ffcdd3"/>
    <path id="Path_226" data-name="Path 226" d="M504.316,369.554l-6.063,3.252-.573-1.145c.853-.71,3.893-3.172,4.89-3.063a7.623,7.623,0,0,0,1.437.04C504.219,369.2,504.316,369.554,504.316,369.554Z" transform="translate(-212.721 -157.549)" opacity="0.1"/>
    <path id="Path_227" data-name="Path 227" d="M505.088,371.734l-6.813,3.361-.137-1.466-.1-1.013s3.951-3.384,5.119-3.258a6.16,6.16,0,0,0,1.781,0l.074,1.225Z" transform="translate(-212.875 -157.874)" fill="#dce6f2"/>
    <path id="Path_228" data-name="Path 228" d="M621.951,396.084s-29.727,3.355-24.168,1.552c3.865-1.26,5.4-3.716,5.726-6.447a15.486,15.486,0,0,0-1.111-6.871,29.577,29.577,0,0,0-2.657-5.371s22.725-12.5,18.179-1.145a18.209,18.209,0,0,0-1.288,5.382,15.046,15.046,0,0,0,.573,5.445A16.185,16.185,0,0,0,621.951,396.084Z" transform="translate(-255.213 -159.449)" fill="#ffcdd3"/>
    <path id="Path_229" data-name="Path 229" d="M619.9,377.8a18.21,18.21,0,0,0-1.288,5.382c-2.141,1.8-4.489,1.678-7.5,1.678-2.29,0-4.878.573-6.733-.573a29.568,29.568,0,0,0-2.657-5.371S624.445,366.431,619.9,377.8Z" transform="translate(-257.192 -159.442)" opacity="0.1"/>
    <circle id="Ellipse_45" data-name="Ellipse 45" cx="12.293" cy="12.293" r="12.293" transform="translate(341.219 201.624)" fill="#ffcdd3"/>
    <path id="Path_230" data-name="Path 230" d="M579.685,395.427s-29.727,3.355-24.168,1.552c3.865-1.26,5.4-3.716,5.726-6.447,1.477-1.6,4.449-2.76,6.361-3.372a8.88,8.88,0,0,1,5.388-.086,7.484,7.484,0,0,1,1.958.9,16.186,16.186,0,0,0,4.735,7.449ZM596.6,379.109l-5.686,1.317-.115-.847a5.021,5.021,0,0,1,5.456-1.867Zm-91.438-6.458-6.813,3.361-.137-1.466a50.089,50.089,0,0,1,6.871-3.046Zm86.279,97.673c-11.508,1.821-27.9,4.185-30.495,3.4-2.153-.659-9.041-.573-15.035-.384.052-3,.1-4.987.1-4.987l44.62-4.661A36.851,36.851,0,0,0,591.44,470.324Z" transform="translate(-212.948 -158.792)" opacity="0.1"/>
    <path id="Path_231" data-name="Path 231" d="M601.594,467.9s-37.9,6.51-41.974,5.268-24.952.1-24.952.1c-9.4,6.3-5.474-2.995-5.474-2.995a23.126,23.126,0,0,1,.309-8.777,53.458,53.458,0,0,0,1.58-8.777s-.206-6.2.928-7.644S534.49,433.3,534.49,433.3s1.036-7.02.933-8.588a58.715,58.715,0,0,1,.309-5.886l1.34-7.231c-7.747-1.031-31.3-15.493-31.3-15.493-1.145-4.85-9.911-16.215-9.911-16.215a11.793,11.793,0,0,0-.727-2.788c-.618-1.649,8.68-4.953,8.68-4.953s6.917,8.468,8.365,10.741,6.4,6.5,6.4,6.5a5.039,5.039,0,0,1,2.29.3l.12.034a18.515,18.515,0,0,1,4.626,2.657,8.966,8.966,0,0,1,6.3,2.376s4.237-.618,4.958.1,4.34,0,4.34,0,3.613-7.644,5.989-5.422,12.453,2.119,12.453,2.119c1.346-1.786,4.615-3.069,6.659-3.727a8.92,8.92,0,0,1,5.388-.086,6.944,6.944,0,0,1,2.124,1.025l6.115,5.989s1.758-2.29,1.552-2.788,2.067-.928,2.067-.928,2.995-.933,4.128-1.242,2.176.922,2.29,1.031a12.112,12.112,0,0,1-.51-4.54,5.345,5.345,0,0,0-1.242-3.722c3.619-8.88,11.778-1.443,11.778-1.443s.928,4.855.1,6.71.825,5.789.618,6.819.412,2.788.412,4.752a27.867,27.867,0,0,1-1.655,7.329c-.624,1.649-5.577,5.371-5.577,5.371s-.309,5.892-2.479,9.3-.887,15.081-.887,15.081,2.067,9.109,4.666,12.024,6.384,19.393,6.384,19.393Z" transform="translate(-211.622 -159.065)" fill="#fff"/>
    <path id="Path_232" data-name="Path 232" d="M562.073,413.043s-1.145-3.407-2.17-3.716a24.583,24.583,0,0,1-2.994-1.346l.664-1.271s3.876,1.065,4.5,2.2S562.073,413.043,562.073,413.043ZM541.311,405.5c-.206,1.031-9.4,1.964-9.4,1.964l4.649-4.661.115.04A18.517,18.517,0,0,1,541.311,405.5Z" transform="translate(-227.352 -172.171)" opacity="0.1"/>
    <circle id="Ellipse_46" data-name="Ellipse 46" cx="0.824" cy="0.824" r="0.824" transform="translate(286.533 218.331)" fill="#575988"/>
    <circle id="Ellipse_47" data-name="Ellipse 47" cx="0.824" cy="0.824" r="0.824" transform="translate(287.593 219.986)" fill="#575988"/>
    <circle id="Ellipse_48" data-name="Ellipse 48" cx="0.824" cy="0.824" r="0.824" transform="translate(288.629 221.509)" fill="#575988"/>
    <circle id="Ellipse_49" data-name="Ellipse 49" cx="0.824" cy="0.824" r="0.824" transform="translate(289.711 223.163)" fill="#575988"/>
    <circle id="Ellipse_50" data-name="Ellipse 50" cx="0.67" cy="0.67" r="0.67" transform="translate(387.224 223.226)" fill="#575988"/>
    <circle id="Ellipse_51" data-name="Ellipse 51" cx="0.67" cy="0.67" r="0.67" transform="translate(387.327 224.749)" fill="#575988"/>
    <circle id="Ellipse_52" data-name="Ellipse 52" cx="0.67" cy="0.67" r="0.67" transform="translate(387.419 226.272)" fill="#575988"/>
    <path id="Path_233" data-name="Path 233" d="M574.7,469.57c-.1-.12,23.183,29.281,41.259,12.293C615.954,481.863,587.394,485.733,574.7,469.57ZM561.32,484.857s13.93.378,15.385,4.386v4.174a2.663,2.663,0,0,1-2.588,0c-1.4-.762-9.831-5.039-12.8-2.983Z" transform="translate(-239.923 -200.71)" opacity="0.1"/>
    <path id="Path_234" data-name="Path 234" d="M561.77,496.27s13.324.361,14.715,4.185v3.968a2.554,2.554,0,0,1-2.479,0c-1.34-.721-9.4-4.8-12.236-2.863Z" transform="translate(-240.116 -212.123)" fill="#656691"/>
    <path id="Path_235" data-name="Path 235" d="M568.381,427.076a45.013,45.013,0,0,0,5.4,9.27,36.351,36.351,0,0,0,8.462,8.17S568.61,428.994,568.381,427.076Zm-4.558-16.186s2.325,10.031,8.314,13.444Zm-3.567,1.013c-.057-.183-2.061,7.936,7.724,12.43C568,424.333,563.823,422.919,560.256,411.9Zm60.835-6.728c-.155,0,4.832,3.172,6.184,4.643C627.274,409.819,624.034,404.969,621.091,405.175Z" transform="translate(-239.38 -173.183)" opacity="0.1"/>
    <path id="Path_236" data-name="Path 236" d="M603.994,372.364a2.616,2.616,0,0,0,.962,1.66,2.65,2.65,0,0,0,1.145.258c3.75.229,7.649.4,11.113-1.048a4.2,4.2,0,0,0,1.718-1.116,6.928,6.928,0,0,0,.985-2.72,35.661,35.661,0,0,1,2.29-5.222,17.515,17.515,0,0,0,1.214-9.373,6.213,6.213,0,0,0-.933-2.743c-1-1.42-2.806-1.993-4.122-3.12s-2.159-2.863-3.693-3.71a7.127,7.127,0,0,0-4.638-.412,24.47,24.47,0,0,0-8.714,3.252,4.327,4.327,0,0,1-2.863.985,4,4,0,0,1-2.13-1.632,11.451,11.451,0,0,0-.916,5.353,2.382,2.382,0,0,1,0,.807,2.49,2.49,0,0,1-.573.853c-.928,1.071-1.506,2.771-.573,3.853.4.475,1.008.733,1.4,1.214.693.865.458,2.1.441,3.212a1.638,1.638,0,0,0,.275,1.088,1.586,1.586,0,0,0,1.517.361,4.208,4.208,0,0,1,1.615-.155,2.656,2.656,0,0,1,1.4,1.082c1.683,2.2,2.353,4.621,3.081,7.272Z" transform="translate(-253.803 -147.306)" fill="#2d293d"/>
    <g id="Group_24" data-name="Group 24" transform="translate(339.951 199.997)" opacity="0.1">
      <path id="Path_237" data-name="Path 237" d="M619.3,373.164a4.157,4.157,0,0,1-1.718,1.145c-3.435,1.443-7.363,1.277-11.113,1.042a2.5,2.5,0,0,1-1.145-.258,2.6,2.6,0,0,1-.962-1.66c-.727-2.645-1.4-5.067-3.132-7.266a2.657,2.657,0,0,0-1.4-1.082,4.1,4.1,0,0,0-1.615.155,1.6,1.6,0,0,1-1.5-.361,1.649,1.649,0,0,1-.275-1.094c0-1.1.252-2.347-.441-3.206-.389-.487-1-.739-1.4-1.214a2.428,2.428,0,0,1-.24-2.468,2.827,2.827,0,0,0-.172,3.292c.4.475,1.008.733,1.4,1.214.693.865.458,2.1.441,3.212a1.638,1.638,0,0,0,.275,1.088,1.586,1.586,0,0,0,1.517.361,4.209,4.209,0,0,1,1.615-.155,2.657,2.657,0,0,1,1.4,1.082c1.718,2.2,2.4,4.621,3.132,7.272a1.941,1.941,0,0,0,2.118,1.918c3.75.229,7.649.4,11.113-1.048a4.2,4.2,0,0,0,1.718-1.117,3.28,3.28,0,0,0,.532-1A1.757,1.757,0,0,1,619.3,373.164Zm-23.916-17.91a1.716,1.716,0,0,0,.378-.618,2.39,2.39,0,0,0,0-.807,11.393,11.393,0,0,1,.573-4.449l-.069-.08a11.373,11.373,0,0,0-.916,5.353A3.512,3.512,0,0,1,595.383,355.255Z" transform="translate(-593.726 -349.3)"/>
    </g>
    <path id="Path_238" data-name="Path 238" d="M607.78,401.335s15.356,2.033,16.736-.275m13.129-6.081s8.525,0,10.4,3.212" transform="translate(-259.782 -168.828)" opacity="0.1"/>
    <path id="Path_239" data-name="Path 239" d="M978.485,381.51s1.065,1.391-.492,3.5-2.863,3.888-2.325,5.2c0,0,2.353-3.911,4.266-3.968s.659-2.4-1.449-4.729Z" transform="translate(-416.979 -163.07)" fill="#bbb8fa"/>
    <path id="Path_240" data-name="Path 240" d="M978.534,381.51a1.886,1.886,0,0,1,.218.435c1.867,2.2,2.863,4.243,1.065,4.294-1.672.052-3.676,3.04-4.157,3.8a.506.506,0,0,0,.057.172c.023.057,2.353-3.911,4.266-3.968s.659-2.4-1.449-4.729Z" transform="translate(-417.028 -163.07)" opacity="0.1"/>
    <path id="Path_241" data-name="Path 241" d="M983.956,384.326c0,.492-.052.893-.12.893s-.126-.4-.126-.893.069-.258.138-.258S983.956,383.839,983.956,384.326Z" transform="translate(-420.469 -164.14)" fill="#ffd037"/>
    <path id="Path_242" data-name="Path 242" d="M984.7,385.338c-.43.235-.807.378-.836.315s.286-.3.721-.532.258-.063.292,0S985.14,385.1,984.7,385.338Z" transform="translate(-420.536 -164.562)" fill="#ffd037"/>
    <path id="Path_243" data-name="Path 243" d="M969.049,381.51s-1.071,1.391.492,3.5,2.863,3.888,2.325,5.2c0,0-2.353-3.911-4.271-3.968s-.653-2.4,1.454-4.729Z" transform="translate(-413.177 -163.07)" fill="#bbb8fa"/>
    <path id="Path_244" data-name="Path 244" d="M969.049,381.51a1.749,1.749,0,0,0-.223.435c-1.866,2.2-2.863,4.243-1.065,4.294,1.672.052,3.682,3.04,4.163,3.8a.506.506,0,0,1-.057.172c-.023.057-2.353-3.911-4.271-3.968S966.942,383.835,969.049,381.51Z" transform="translate(-413.177 -163.07)" opacity="0.1"/>
    <path id="Path_245" data-name="Path 245" d="M967.37,384.327c0,.492.057.893.126.893a1.811,1.811,0,0,0,.12-.893c0-.487-.069-.258-.137-.258S967.37,383.841,967.37,384.327Z" transform="translate(-413.485 -164.142)" fill="#ffd037"/>
    <path id="Path_246" data-name="Path 246" d="M965.984,385.338c.435.235.807.378.842.315s-.292-.3-.721-.532-.263-.063-.3,0-.252-.017.177.218Z" transform="translate(-412.78 -164.562)" fill="#ffd037"/>
    <path id="Path_247" data-name="Path 247" d="M967.94,395.126s2.983-.092,3.882-.733,4.581-1.4,4.815-.378,4.483,5.107,1.145,5.153-7.827-.521-8.726-1.071S967.94,395.126,967.94,395.126Z" transform="translate(-413.728 -168.201)" fill="#a8a8a8"/>
    <path id="Path_248" data-name="Path 248" d="M977.822,400c-3.367,0-7.827-.527-8.72-1.071-.687-.418-.956-1.912-1.048-2.6h-.115s.189,2.41,1.088,2.954,5.353,1.1,8.726,1.071c.973,0,1.305-.355,1.288-.865C978.916,399.8,978.549,399.994,977.822,400Z" transform="translate(-413.728 -169.405)" opacity="0.2"/>
  </g>
</svg>
