<svg xmlns="http://www.w3.org/2000/svg" xmlns:xlink="http://www.w3.org/1999/xlink" width="620.738" height="459.768" viewBox="0 0 620.738 459.768">
  <defs>
    <linearGradient id="linear-gradient" x1="0.5" y1="1" x2="0.5" gradientUnits="objectBoundingBox">
      <stop offset="0" stop-color="gray" stop-opacity="0.251"/>
      <stop offset="0.54" stop-color="gray" stop-opacity="0.122"/>
      <stop offset="1" stop-color="gray" stop-opacity="0.102"/>
    </linearGradient>
    <linearGradient id="linear-gradient-2" x1="0.5" y1="1" x2="0.5" y2="0" xlink:href="#linear-gradient"/>
    <linearGradient id="linear-gradient-3" x1="-0.211" y1="3.614" x2="-0.211" y2="0.343" xlink:href="#linear-gradient"/>
    <linearGradient id="linear-gradient-4" x1="-0.036" y1="4.542" x2="-0.036" y2="1.284" xlink:href="#linear-gradient"/>
    <linearGradient id="linear-gradient-5" x1="-0.017" y1="4.446" x2="-0.017" y2="1.187" xlink:href="#linear-gradient"/>
    <linearGradient id="linear-gradient-6" x1="-1.04" y1="1.715" x2="-1.04" y2="0.715" xlink:href="#linear-gradient"/>
    <linearGradient id="linear-gradient-7" x1="0.551" y1="0.784" x2="0.551" y2="0.225" xlink:href="#linear-gradient"/>
    <linearGradient id="linear-gradient-8" x1="0.5" y1="1" x2="0.5" y2="0" xlink:href="#linear-gradient"/>
    <linearGradient id="linear-gradient-9" x1="0.5" x2="0.5" y2="1" gradientUnits="objectBoundingBox">
      <stop offset="0" stop-color="#65e2d9"/>
      <stop offset="1" stop-color="#339ecc"/>
    </linearGradient>
  </defs>
  <g id="Group_33" data-name="Group 33" transform="translate(-71 -196)">
    <path id="Path_3" data-name="Path 3" d="M305.463,44.445C285.1,36.166,263.576,29.235,241.6,30.117c-32.326,1.271-63.289,20.7-78.5,49.229-12.887,24.168-14.476,52.5-20.026,79.32-6.838,33.05-19.933,64.456-33.926,95.171-7.517,16.476-15.445,33.351-16.678,51.437-1.715,25.105,10.29,50.128,29.11,66.845s43.832,25.51,68.91,27.434c13.352,1.025,27.3.077,39.164-6.137,12.547-6.575,21.692-18.459,34.288-24.935,11.676-6.027,25.33-6.849,38.436-6.065a172.118,172.118,0,0,1,50.183,10.662c18.316,6.882,35.351,16.843,53.629,23.817s38.7,10.87,57.382,5.046c17.533-5.479,31.417-18.738,43.926-32.189a563.317,563.317,0,0,0,56-70.844c11.281-16.9,21.779-34.726,26.771-54.423,9.534-37.652-3.589-80.137-32.7-105.855-24.108-21.3-56.484-30.551-88.169-36.162C440.505,97.351,407.1,97.033,380.5,83.7,355.136,70.958,332.058,55.261,305.463,44.445Z" transform="translate(29.266 182.417)" fill="#515151" opacity="0.1"/>
    <path id="Path_4" data-name="Path 4" d="M825.215,142.391c-7.824.312-8.218,20.514-7.731,21.4s-1.775,10-1.775,10-3.55,13.824-3.139,16.393a4.788,4.788,0,0,1-1.912,4.252c-3.474,1.37-7.83,5.786-8.986,7l-.29.312s-3.364,2.192-3.956,3.057-2.192.175-2.192.175a42.72,42.72,0,0,0-5.139-.263c-.406.121-1.041-.625-1.4-1.1-.17-.225-.279-.395-.279-.395l-.137-4.076a3.34,3.34,0,0,0-.548-.34c.093-.46.208-.937.351-1.425a12.208,12.208,0,0,0,4.981-4.471c.131-.208.252-.422.367-.636a1.643,1.643,0,0,0,1.036.29,2.054,2.054,0,0,0,.482-.044,3.9,3.9,0,0,0,1.4-.707,7.5,7.5,0,0,0,2.608-3.057,4.948,4.948,0,0,0,.247-.729c-.082.137-.17.274-.257.405a4.213,4.213,0,0,0-.29-3.556,11.677,11.677,0,0,1-1.37-2.016c-.46-1.32.411-2.685.948-3.978a6.69,6.69,0,0,0,.488-3.748,4.789,4.789,0,0,0-2.027-3.161c-2.153-1.4-5.074-.63-7.567-1.3a20.479,20.479,0,0,1-2.6-1.046,19.728,19.728,0,0,0-3.983-1.238c-1.353-.268-2.992-.3-3.835.762a7.864,7.864,0,0,0-.625,1.057,3.918,3.918,0,0,1-2.449,1.759,9.182,9.182,0,0,1-1.507.159,1.461,1.461,0,0,0,0-.625c-.636-2.082,1.183-3.627,3.55-4.559s11.369-8.021,12.416-9.7,8.372-6.958,8.372-6.958,10.958-3.1,14.552-14.4-17.193,7.89-19.286,8.465a21.326,21.326,0,0,0-5.09,2.74l-13.33,7.709a48.282,48.282,0,0,0-7.189,4.964,24.137,24.137,0,0,0-5.271,7.528s-1.277,2.082-3.14,5.1a13.872,13.872,0,0,1-4.065,4.323l.06-.11c-.148.181-4.734,5.972-5.139,8.5s-2.274,12.848-2.274,12.848-1.644,8.1-2.772,9.7c0,0-.915,4.652-1.457,5.276s-2.74,7.216-2.367,7.884c0,0-2.093,4.564-1.726,6.29l-3.775,9.04s-2.049,4.471-1.912,7.084c.066,1.266.121,2.74.159,3.945v1.1c-.2.34-.723,1.205-1.266,2.252-.778,1.523-1.605,3.424-1.556,4.6.088,2.06.093,7.09-.855,8.936l-.279-.11a3.835,3.835,0,0,0-.548,1.819l.066.033c0,.159-.049.323-.066.5-.23,2.1.1,5.019-.422,5.66-.729.888-.367,20.557-.367,20.557s-1.183,12.311,1.183,20.114l-.181,6.109a56.918,56.918,0,0,0,.181,6.575,64.087,64.087,0,0,1,.367,6.646l1.364,9.747s-1.825,15.062-.274,18.782a20.468,20.468,0,0,1,1.644,6.471,10.063,10.063,0,0,0,2.51.97v.548l-.356,9.161v.5s-.044.241-.077.641v.225a.275.275,0,0,0,0,.066v.192a1.391,1.391,0,0,0,0,.148,1.051,1.051,0,0,1,0,.132v1.627a1.58,1.58,0,0,0,.044.274.276.276,0,0,0,0,.066,1.392,1.392,0,0,0,.06.3,1.164,1.164,0,0,0,.071.3.076.076,0,0,1,0,.033.544.544,0,0,0,.044.153.273.273,0,0,0,0,.071.9.9,0,0,0,.055.186v.044c.055.153.11.307.175.46a.188.188,0,0,0,0,.049c0,.055.049.115.077.17l.033.077.071.148.044.082.077.137.049.082c0,.044.049.088.077.132a1,1,0,0,1,.055.088l.082.126.06.082.088.126.066.082.1.12.066.077.115.131.06.066.186.181a.282.282,0,0,0,.06.055,1.476,1.476,0,0,0,.137.126l.088.071.121.1.1.077.121.088.115.077.121.077.126.071.126.077.132.066.137.066.137.066.137.06.148.06.148.055.153.055.164.049.258.077.214.055.17.033.175.038h.186l.181.027h2.312l.3-.027h.181l.5-.055s6.208.926,6.411-1.529a1.969,1.969,0,0,1,.027-.394V384.2a.822.822,0,0,1,0-.115v-3.118c-.038-1.216-.1-2.345-.137-2.975a3.971,3.971,0,0,0-.033-.548s-2.115-3.189-1.77-4.383a31.55,31.55,0,0,0,.268-5.249s-.822-1.945-1.375-3.665c-.044-.132-.082-.263-.12-.389a20.225,20.225,0,0,0,1.293-1.644,20.819,20.819,0,0,0-1.545-12.492.778.778,0,0,1-.334-.641.275.275,0,0,1,0-.066l1.058-12.936-.641-7.528s-.455-5.145.548-7.358l2-19.489,2.838-11.336s.91-.444,1.644,1.687,2.542,11.78,2.542,11.78l4.383,15.949s.729,5.671,1.364,6.471.641,4.339.641,4.339,1.364,2.838,1.184,4.076a17.635,17.635,0,0,0,.449,5.758c.449,1.151.641,9.314.641,9.314a18.813,18.813,0,0,0,.181,8.065,28.4,28.4,0,0,1,.455,9.216,6.273,6.273,0,0,0,.373.515c-.044.121-.093.241-.137.351-.285.74-.51,1.26-.51,1.26a32.314,32.314,0,0,0,.274,5.249c.34,1.194-1.775,4.383-1.775,4.383s0,.2-.033.548c-.038.63-.1,1.753-.137,2.975v3.123a.689.689,0,0,0,0,.1v.318a2.019,2.019,0,0,0,.027.394c.208,2.455,6.416,1.529,6.416,1.529l.5.06h2.772l.186-.033.181-.027.175-.038.175-.033.214-.055.257-.077.159-.049.153-.055a1.184,1.184,0,0,0,.148-.055l.148-.06.142-.06.137-.06.137-.071.126-.066.132-.071.12-.077.126-.077.109-.077.12-.088a.729.729,0,0,0,.1-.077,1,1,0,0,0,.121-.093l.093-.077.137-.121.06-.06.186-.181.055-.066.12-.126.06-.082a1.08,1.08,0,0,0,.1-.121l.06-.082.093-.126.055-.082.088-.126a.8.8,0,0,1,.055-.088c0-.044.049-.088.077-.132l.049-.082c0-.049.049-.093.071-.137a.582.582,0,0,0,.044-.082c0-.049.049-.1.071-.148l.038-.077c0-.055.049-.11.077-.17v-.049c.06-.153.121-.307.17-.46v-.044a.588.588,0,0,1,.06-.181.4.4,0,0,1,0-.077.209.209,0,0,1,.044-.153v-.027a.073.073,0,0,0,0-.033,1.329,1.329,0,0,1,.077-.29,1.884,1.884,0,0,1,.06-.3v-.071a2.1,2.1,0,0,1,.044-.268.214.214,0,0,0,0-.093V380.56a1.36,1.36,0,0,1,0-.148v-.192a.273.273,0,0,1,0-.066v-.219c-.033-.4-.071-.641-.071-.641v-.5l-.345-8.865v-.548c.51-.285,1.03-.608,1.573-.986,0,0-.093-5.052,1.364-7.084s-.729-7.358-.729-7.358l-.91-19.051.362-8.766a8.717,8.717,0,0,1-1.1-4.252,15.468,15.468,0,0,0-1.458-5.479s-.909-3.013.186-3.9-1.183-20.272-1.183-20.272.548-14.163-.493-22.574v-.137l.291-.132c-.088-.674-.181-1.3-.285-1.89l-.307.093a15.416,15.416,0,0,0-.548-2.192l-1.457-6.69s-.033-.351-.071-.86c-.049-.6-.1-1.419-.115-2.137a3.635,3.635,0,0,1,.1-.9l-.077-.066a1.991,1.991,0,0,1,.077-.466l-.318-.269s-.044-.3-.077-.762a8.571,8.571,0,0,1,.395-3.8c.729-1.463,8.219-7,8.219-7l4.2-8.4s4.186-5.9,7.369-7.046,13.1-7.747,13.1-7.747,3.457-3.545,3.731-4.383l.115-.175h.066v-.115l9.314-13.955c3.726-3.013,3.863-9.435,3.863-9.435l.97-14.673-.318-8.679.449-4.931S833.034,142.084,825.215,142.391Zm-53.355,37.97a11.739,11.739,0,0,0-1.545,5.819v.531a11.7,11.7,0,0,0,1.243,5.248,4.3,4.3,0,0,0-.9,1.607c-.46-.581-1.808-2.356-1.885-3.534a3.679,3.679,0,0,0-1.458-2.389s-.252-2.685.088-3.145l.049-.044s.038-.066.115-.175c.389-.586,1.7-2.564,3.052-4.816a4.317,4.317,0,0,0,.7.23l.833.208Z" transform="translate(-276.886 119.504)" fill="url(#linear-gradient)"/>
    <path id="Path_5" data-name="Path 5" d="M855.514,216.821c.082-.186.148-.384.214-.581a12.144,12.144,0,0,0-.548,1.342C855.3,217.325,855.41,217.073,855.514,216.821Z" transform="translate(-333.999 81.565)" fill="url(#linear-gradient-2)"/>
    <path id="Path_6" data-name="Path 6" d="M773.55,209.28s-1.715,8.175-4.876,9.232,3.835,10.41,3.835,10.41l14.5-.794.263-3.03s-2.74-6.065,1.846-13.446S773.55,209.28,773.55,209.28Z" transform="translate(-276.142 102.135)" fill="#f6bac2"/>
    <path id="Path_7" data-name="Path 7" d="M724.689,543.871c-.2,2.438-6.2,1.518-6.2,1.518-9.95,1.381-8.306-8.372-8.306-8.372v-.5l.345-9.1.1-2.537s10.958-5.008,10.679-3.956a6.228,6.228,0,0,0,.444,2.367c.548,1.7,1.331,3.633,1.331,3.633a32.781,32.781,0,0,1-.263,5.2c-.329,1.184,1.715,4.35,1.715,4.35s0,.2.033.548A63.91,63.91,0,0,1,724.689,543.871Zm19.182,2.635s-6,.926-6.2-1.518a62.286,62.286,0,0,1,.1-6.854,4.908,4.908,0,0,1,.027-.548s2.044-3.167,1.715-4.35a32.807,32.807,0,0,1-.263-5.211s.214-.509.493-1.244c.586-1.54,1.468-4.038,1.288-4.75-.263-1.057,10.679,3.95,10.679,3.95l.11,2.838.334,8.794v.5S753.827,547.893,743.872,546.507Z" transform="translate(-250.026 -39.445)" fill="#b77983"/>
    <path id="Path_8" data-name="Path 8" d="M798.776,109c-3.485,11.2-14.059,14.284-14.059,14.284s-7.079,5.249-8.087,6.893-9.709,8.7-12,9.627-4.038,2.46-3.424,4.52c.548,1.912-5.446,11.27-6.35,12.662l-.11.175-1.89,1.978-6.416,3.249-5.227-1.671-.663-6.279,2.772-4.931a13.6,13.6,0,0,0,3.928-4.29c1.8-2.992,3.036-5.052,3.036-5.052a24.1,24.1,0,0,1,5.1-7.473,46.1,46.1,0,0,1,6.942-4.931l12.881-7.671a20.772,20.772,0,0,1,4.931-2.74c2.033-.586,22.114-19.555,18.64-8.35Z" transform="translate(-263.799 148.316)" fill="#f6bac2"/>
    <path id="Path_9" data-name="Path 9" d="M746.44,194.7l8.569-1.715a.549.549,0,0,0-.153.356l-.11.175-1.89,1.978-6.416,3.249-5.227-1.671-.663-6.279,2.772-4.931c-2.624,5.479-.066,9.369-.066,9.369ZM796.551,223a1.62,1.62,0,0,0-.06.175,2.4,2.4,0,0,1-.318.548l-3.457,1.688-5.276.548-2.74-6.635,1.824-7.271,1.008-1.359.279-.307c.1,1.315.636,8.175.6,10.235-.044,2.285,1.644,2.466,1.644,2.466Z" transform="translate(-263.799 111.972)" opacity="0.05"/>
    <path id="Path_10" data-name="Path 10" d="M781.563,223.389a1.617,1.617,0,0,0-.06.175c-.263.833-3.6,4.35-3.6,4.35s-9.583,6.548-12.657,7.671-7.123,6.986-7.123,6.986l-4.044,8.345s-7.249,5.479-7.95,6.948a8.657,8.657,0,0,0-.378,3.77,3.913,3.913,0,0,0,.066.756l-2.137,2.23-1.7,1.775-2.4,2.5-3.906-.548L723.5,266.411l-2.334-1.315L708.2,257.8s0-.455-.033-1.151c0-.307,0-.658-.033-1.047-.038-1.183-.093-2.657-.153-3.912-.131-2.592,1.846-7.03,1.846-7.03l3.643-8.969c-.351-1.709,1.671-6.241,1.671-6.241-.351-.658,1.759-7.2,2.285-7.819s1.408-5.232,1.408-5.232c1.1-1.578,2.679-9.621,2.679-9.621s1.8-10.2,2.192-12.744,4.822-8.257,4.964-8.432c-3.162,5.8-.395,10.016-.395,10.016l3.167-.548,8.575-1.671c-.394.263-.132,3.161-.132,3.161a3.655,3.655,0,0,1,1.4,2.372c.082,1.288,1.644,3.287,1.934,3.644l.044.049a4.289,4.289,0,0,1,2.066-2.948l1.978,2.641.663,3.161s-.181.444-1.32,1.32.482,3.161.482,3.161c.548.926.707,4.35.707,4.35a6.407,6.407,0,0,1,3.731-1.271,11.3,11.3,0,0,0,2.241-3.211,1.326,1.326,0,0,1,1.89-.877,12.152,12.152,0,0,1,2.153-1.5c1.057-.548,2.285.548,2.285.548l.131,4.049s.1.164.274.389c.345.482.964,1.222,1.353,1.1a40.141,40.141,0,0,1,4.964.263s1.54.658,2.109-.175a26,26,0,0,1,3.835-3.03s.63,8.158.63,10.438,1.644,2.466,1.644,2.466Z" transform="translate(-249.073 112.09)" fill="#fff"/>
    <path id="Path_11" data-name="Path 11" d="M842.365,254.369h-.115C842.458,253.821,842.365,254.369,842.365,254.369Z" transform="translate(-309.777 81.11)" fill="none"/>
    <circle id="Ellipse_1" data-name="Ellipse 1" cx="0.789" cy="0.789" r="0.789" transform="translate(495.742 329.348)" fill="#4b4442"/>
    <circle id="Ellipse_2" data-name="Ellipse 2" cx="0.789" cy="0.789" r="0.789" transform="translate(489.983 340.821)" fill="#4b4442"/>
    <circle id="Ellipse_3" data-name="Ellipse 3" cx="0.789" cy="0.789" r="0.789" transform="translate(478.647 365.384)" fill="#4b4442"/>
    <circle id="Ellipse_4" data-name="Ellipse 4" cx="0.789" cy="0.789" r="0.789" transform="translate(484.006 352.99)" fill="#4b4442"/>
    <path id="Path_12" data-name="Path 12" d="M722.2,523.3c-4.12,4.9-8.569,4.816-11.221,4.126l.1-2.537s10.958-5.008,10.679-3.956A5.82,5.82,0,0,0,722.2,523.3Zm30.031,5.545c-7,4.044-11.1-.7-12.054-2.038.586-1.54,1.469-4.038,1.287-4.75C741.2,521,752.144,526,752.144,526Z" transform="translate(-250.43 -39.445)" opacity="0.05"/>
    <path id="Path_13" data-name="Path 13" d="M749.378,427.3c-1.4,2.022-1.32,7.03-1.32,7.03-9.051,6.5-13.8-1.408-13.8-1.408a29.1,29.1,0,0,0-.438-9.139,19.074,19.074,0,0,1-.175-8s-.175-8.087-.619-9.227a17.647,17.647,0,0,1-.438-5.715c.175-1.233-1.14-4.038-1.14-4.038s0-3.518-.619-4.307-1.315-6.421-1.315-6.421L725.3,370.262s-1.759-9.577-2.46-11.687-1.583-1.671-1.583-1.671l-2.531,11.336-1.934,19.336c-.97,2.192-.548,7.3-.548,7.3l.614,7.468-1.019,12.832a.269.269,0,0,0,0,.066.784.784,0,0,0,.318.636,21.115,21.115,0,0,1,1.474,12.394c-6.679,9.671-14.766,4.657-14.766,4.657a20.5,20.5,0,0,0-1.578-6.41c-1.5-3.693.263-18.629.263-18.629l-1.321-9.671a64.748,64.748,0,0,0-.351-6.575,57.846,57.846,0,0,1-.175-6.5l.175-6.065c-2.285-7.736-1.145-19.949-1.145-19.949s-.351-19.511.356-20.393c.51-.636.186-3.528.405-5.616a3.919,3.919,0,0,1,.515-1.8l.088-.088c1.145-1.408,1.145-7.03,1.052-9.232a11.856,11.856,0,0,1,1.507-4.559c.548-1.063,1.046-1.94,1.233-2.257l.077-.126s5.008,1.233,18.278,7.561a24.938,24.938,0,0,0,7.55,2.34,16.8,16.8,0,0,0,3.939.06,13.751,13.751,0,0,0,5.665-1.841,9.963,9.963,0,0,0,2.449-1.967,16.377,16.377,0,0,0,0,3.539c.033.51.071.855.071.855l1.463,6.52a17.123,17.123,0,0,1,.548,2.361c.1.581.192,1.211.274,1.879,1.025,8.339.477,22.393.477,22.393s2.192,19.248,1.145,20.125-.181,3.868-.181,3.868a15.6,15.6,0,0,1,1.408,5.446,8.766,8.766,0,0,0,1.057,4.219l-.356,8.7.92,18.875s2.109,5.3.7,7.32Z" transform="translate(-244.766 53.566)" fill="#4a8eff"/>
    <path id="Path_14" data-name="Path 14" d="M742.688,406.162s6.657-3.835,8.109-2.109S742.688,406.162,742.688,406.162Zm4.021,2.109s-1.1.548,1.321,1.249S746.709,408.271,746.709,408.271Zm-40.255-10.547c-.225.066,5.539,3.89,10.744.723C717.177,398.447,707.753,397.33,706.455,397.724Zm10.459,7.315a7.065,7.065,0,0,1-4.81,3.561C708.871,409.06,716.914,405.039,716.914,405.039Zm21.16,6.728s7.583,12.054,6.131,14.9S738.074,411.767,738.074,411.767ZM725.286,338.66l-.789,23.6s4.679-.2,5.479-7.972,1.386-14.109,1.386-14.109Z" transform="translate(-248.382 42.892)" opacity="0.05"/>
    <path id="Path_15" data-name="Path 15" d="M739.7,337.7l-.789,23.6s4.679-.2,5.479-7.978,1.4-14.1,1.4-14.1Z" transform="translate(-263.057 43.326)" fill="#8499f0"/>
    <path id="Path_16" data-name="Path 16" d="M713.012,339.029s-3.693,9.9-12.142,5.107a3.9,3.9,0,0,1,.515-1.8c2.312.97,7.671,2.389,9.862-4.033Z" transform="translate(-245.859 43.055)" opacity="0.05"/>
    <path id="Path_17" data-name="Path 17" d="M712.531,337.1s-3.693,9.9-12.141,5.107a3.918,3.918,0,0,1,.515-1.8c2.312.975,7.671,2.389,9.862-4.027Z" transform="translate(-245.643 43.923)" opacity="0.05"/>
    <path id="Path_18" data-name="Path 18" d="M712.531,338.063s-3.693,9.9-12.141,5.106a3.918,3.918,0,0,1,.515-1.8c2.312.975,7.671,2.389,9.862-4.027Z" transform="translate(-245.643 43.489)" fill="#8499f0"/>
    <path id="Path_19" data-name="Path 19" d="M771.084,349.954C761.8,354.37,758.4,343.96,758.4,343.96l2.192.066c.384,6.657,7.72,4.865,10.235,4.049C770.914,348.677,771,349.286,771.084,349.954Z" transform="translate(-271.869 40.496)" opacity="0.05"/>
    <path id="Path_20" data-name="Path 20" d="M772.044,348.51c-9.276,4.411-12.684-6-12.684-6l2.192.066c.383,6.657,7.72,4.871,10.235,4.054C771.874,347.211,771.962,347.841,772.044,348.51Z" transform="translate(-272.303 41.152)" opacity="0.05"/>
    <path id="Path_21" data-name="Path 21" d="M771.564,348.99c-9.276,4.411-12.684-6-12.684-6l2.192.066c.384,6.663,7.72,4.871,10.235,4.055C771.394,347.691,771.482,348.321,771.564,348.99Z" transform="translate(-272.086 40.935)" fill="#8499f0"/>
    <path id="Path_22" data-name="Path 22" d="M712.531,338.063s-3.693,9.9-12.141,5.106a3.918,3.918,0,0,1,.515-1.8c2.312.975,7.671,2.389,9.862-4.027Zm32.59,8.372c-9.276,4.411-12.684-6-12.684-6l2.192.066c.383,6.663,7.72,4.871,10.235,4.055C744.951,345.137,745.039,345.767,745.121,346.435Z" transform="translate(-245.643 43.489)" fill="#fff" opacity="0.1"/>
    <path id="Path_23" data-name="Path 23" d="M724.757,554.87a15.542,15.542,0,0,1-.066,1.825c-.2,2.438-6.2,1.518-6.2,1.518-5.479.762-7.451-1.868-8.1-4.383a10.034,10.034,0,0,1-.3-2.5,10.371,10.371,0,0,1,.1-1.5v-.5a3.665,3.665,0,0,1,3.408.7c2.438,1.978,5.671.46,5.671.46s2.373.2,3.288.986c.515.444,1.364-.624,2.011-1.644.038.657.1,1.846.137,3.117.044.652.055,1.31.055,1.923Z" transform="translate(-250.028 -52.28)" opacity="0.05"/>
    <path id="Path_24" data-name="Path 24" d="M715.136,555.662s-1.644,1.611-4.745-.877a10.044,10.044,0,0,1-.3-2.5c1.583,1.205,4.52,3.375,5.046,3.375Zm9.621.143a1.238,1.238,0,0,1-1.781-.285,11.706,11.706,0,0,0,1.753-1.644C724.746,554.534,724.757,555.191,724.757,555.8Zm12.859,1.129a16.847,16.847,0,0,0,.06,1.825c.2,2.444,6.2,1.518,6.2,1.518,5.479.767,7.451-1.863,8.1-4.383a10.524,10.524,0,0,0,.2-4v-.5a3.709,3.709,0,0,0-3.413.7c-2.438,1.978-5.666.46-5.666.46s-2.372.2-3.287.992c-.515.444-1.364-.625-2.005-1.644-.038.657-.1,1.846-.143,3.117-.044.641-.055,1.3-.049,1.918Z" transform="translate(-250.028 -53.215)" opacity="0.05"/>
    <path id="Path_25" data-name="Path 25" d="M759.088,409.817s1.644,1.611,4.739-.877a9.993,9.993,0,0,0,.307-2.493C762.545,407.647,759.609,409.817,759.088,409.817Zm-9.621.153a1.232,1.232,0,0,0,1.775-.285,11.6,11.6,0,0,1-1.753-1.644C749.472,408.694,749.461,409.351,749.467,409.97Zm-7.232-168.24s-8.438,23.291-5.189,25.313S742.234,241.731,742.234,241.731Zm6.153-7.189s-1.589,7.736-.795,8.438.795-8.438.795-8.438Zm17.04,18.021s-10.372,9.665-9.67,10.459S765.427,252.563,765.427,252.563Zm7.928-21.275c-3.928,1.2-13.111,4.005-13.215,3.983l.509-2.093a6.408,6.408,0,0,1,3.731-1.271,11.293,11.293,0,0,0,2.241-3.211,1.326,1.326,0,0,1,1.89-.877,12.48,12.48,0,0,1,2.153-1.5c1.058-.548,2.285.548,2.285.548l.131,4.044S773.186,231.063,773.355,231.287Z" transform="translate(-261.878 93.748)" opacity="0.05"/>
    <path id="Path_26" data-name="Path 26" d="M793.025,230.347c-3.929,1.2-13.111,4.005-13.215,3.978l.51-2.088a6.407,6.407,0,0,1,3.731-1.271,11.3,11.3,0,0,0,2.241-3.211,1.326,1.326,0,0,1,1.89-.877,12.151,12.151,0,0,1,2.153-1.5c1.057-.548,2.285.548,2.285.548l.132,4.049S792.856,230.112,793.025,230.347Z" transform="translate(-281.548 94.173)" fill="#d39999"/>
    <path id="Path_27" data-name="Path 27" d="M775.738,222.075c.548.926.7,4.35.7,4.35l-1.529,1.216-2.9-8.372-.132-4.35-.055-.247.044.049a4.268,4.268,0,0,1,2.066-2.942l1.978,2.635.663,3.161s-.181.444-1.32,1.32.488,3.178.488,3.178Z" transform="translate(-277.936 100.254)" opacity="0.05"/>
    <path id="Path_28" data-name="Path 28" d="M776.228,221.574c.548.926.707,4.35.707,4.35l-1.529,1.233-2.9-8.372-.132-4.35-.06-.247.044.049a4.291,4.291,0,0,1,2.066-2.948l1.978,2.641.663,3.161s-.181.444-1.32,1.32.488,3.161.488,3.161Z" transform="translate(-278.157 100.476)" fill="#d39999"/>
    <path id="Path_29" data-name="Path 29" d="M795.244,194.127a11.764,11.764,0,1,1-3.444-8.421A11.862,11.862,0,0,1,795.244,194.127Z" transform="translate(-277.8 113.6)" opacity="0.05"/>
    <path id="Path_30" data-name="Path 30" d="M795.235,193.162a11.8,11.8,0,1,1-3.456-8.408,11.868,11.868,0,0,1,3.456,8.408Z" transform="translate(-277.791 114.034)" fill="#f6bac2"/>
    <path id="Path_31" data-name="Path 31" d="M796.474,193.15a11.8,11.8,0,0,1-1.726,6.164c-.175-.312-.279-.674-.455-.992-.246-.444-.816-.816-1.238-.548a1.265,1.265,0,0,0-.389.548c-.345.729-.959,1.457-1.764,1.441a1.748,1.748,0,0,1-1.5-1.282,5.267,5.267,0,0,1-.088-2.093c.12-1.425.143-3.068-.915-4.027a5.992,5.992,0,0,0-2.29-1.025,3,3,0,0,1-1.972-1.457c-.219-.548-.164-1.129-.361-1.644a2.877,2.877,0,0,0-2.131-1.567,5.589,5.589,0,0,1-3.731,1.277,13.981,13.981,0,0,1-3.671-.581,11.868,11.868,0,0,1,22.234,5.769Z" transform="translate(-279.03 114.046)" opacity="0.05"/>
    <path id="Path_32" data-name="Path 32" d="M782.189,182.862c.2.548.143,1.14.362,1.644a2.991,2.991,0,0,0,1.973,1.457,6.028,6.028,0,0,1,2.29,1.019c1.057.964,1.035,2.608.915,4.033a5.26,5.26,0,0,0,.088,2.093,1.759,1.759,0,0,0,1.5,1.282,2.18,2.18,0,0,0,1.764-1.441,1.278,1.278,0,0,1,.389-.548c.422-.279.992.093,1.238.548a5.424,5.424,0,0,0,.707,1.331,1.578,1.578,0,0,0,1.441.329,3.634,3.634,0,0,0,1.353-.7,7.419,7.419,0,0,0,2.52-3.03,4.35,4.35,0,0,0-.159-3.835,11.526,11.526,0,0,1-1.32-2.005c-.449-1.309.394-2.657.915-3.939a6.839,6.839,0,0,0,.465-3.72,4.777,4.777,0,0,0-1.956-3.139c-2.082-1.386-4.9-.625-7.309-1.293a18.523,18.523,0,0,1-2.515-1.036,18.631,18.631,0,0,0-3.835-1.227c-1.31-.263-2.893-.3-3.72.751a8.291,8.291,0,0,0-.6,1.052,3.785,3.785,0,0,1-2.367,1.742c-.707.17-1.446.126-2.191.23a2.41,2.41,0,0,0-1.824,1.047,3.63,3.63,0,0,0-.121,2.192,2.224,2.224,0,0,1-.548,2.066c-.279.214-.663.318-.833.619a.871.871,0,0,0,.258,1.036,2.47,2.47,0,0,0,1.046.46,16.013,16.013,0,0,0,4.2.718,5.545,5.545,0,0,0,3.912-1.441c-.093.093-.7.055-.805.049A3.2,3.2,0,0,1,782.189,182.862Z" transform="translate(-277.445 118.904)" fill="#7e646b"/>
    <g id="Group_3" data-name="Group 3" transform="translate(493.449 294.003)" opacity="0.05">
      <path id="Path_33" data-name="Path 33" d="M797.015,196.348a3.732,3.732,0,0,1-1.353.707,1.589,1.589,0,0,1-1.436-.334,5.354,5.354,0,0,1-.712-1.331c-.247-.444-.816-.816-1.238-.548a1.341,1.341,0,0,0-.389.548,2.145,2.145,0,0,1-1.764,1.441,1.737,1.737,0,0,1-1.5-1.282,5.269,5.269,0,0,1-.093-2.093c.126-1.425.143-3.063-.909-4.027a6.027,6.027,0,0,0-2.3-1.025,3.017,3.017,0,0,1-1.973-1.457c-.219-.548-.164-1.129-.362-1.644a2.864,2.864,0,0,0-2.131-1.567,5.687,5.687,0,0,1-3.731,1.282,16.248,16.248,0,0,1-4.2-.723,2.537,2.537,0,0,1-1.047-.455,1.148,1.148,0,0,1-.17-.2,1.534,1.534,0,0,0-.614.477.871.871,0,0,0,.258,1.036,2.47,2.47,0,0,0,1.046.46,16.017,16.017,0,0,0,4.2.718,5.638,5.638,0,0,0,3.726-1.277,2.867,2.867,0,0,1,2.137,1.562c.2.548.143,1.14.362,1.644a3,3,0,0,0,1.973,1.457,6.027,6.027,0,0,1,2.29,1.019c1.057.964,1.036,2.608.915,4.033a5.271,5.271,0,0,0,.088,2.093,1.759,1.759,0,0,0,1.5,1.282,2.18,2.18,0,0,0,1.764-1.441,1.275,1.275,0,0,1,.389-.548c.422-.279.992.093,1.238.548a5.271,5.271,0,0,0,.712,1.331,1.567,1.567,0,0,0,1.435.329,3.632,3.632,0,0,0,1.353-.7,7.417,7.417,0,0,0,2.52-3.03,4.847,4.847,0,0,0,.236-.723,7.814,7.814,0,0,1-2.23,2.438Zm1.1-10.75c.115-.252.225-.5.329-.751a5.02,5.02,0,0,0,.2-.581A12.987,12.987,0,0,0,798.111,185.6Zm-25.62-3.446a2.247,2.247,0,0,0,.5-2.016,9,9,0,0,1-.1-1.266,1.86,1.86,0,0,0-.3.384,3.632,3.632,0,0,0-.121,2.192,4.267,4.267,0,0,1,.028.707Z" transform="translate(-771.025 -178.87)"/>
    </g>
    <path id="Path_34" data-name="Path 34" d="M745.27,324.977c-1.019.071-2.449.148-4.169.208-1.194.038-2.531.066-3.961.066-1.249,0-2.57,0-3.939-.06a84.467,84.467,0,0,1-12.914-1.331c-5.693-1.1-10.958-2.986-14.246-6.186.548-1.063,1.047-1.945,1.233-2.257,0-.307,0-.663-.033-1.047,5.78,2.74,23.8,10.35,37.614,6.027a3.906,3.906,0,0,0,.066.756l.312.263A16.631,16.631,0,0,0,745.27,324.977Z" transform="translate(-248.197 53.874)" opacity="0.05"/>
    <path id="Path_35" data-name="Path 35" d="M745.27,324.013c-1.019.071-2.449.148-4.169.2-1.194.044-2.531.066-3.961.066-1.249,0-2.57,0-3.939-.06a84.452,84.452,0,0,1-12.914-1.326c-5.693-1.1-10.958-2.992-14.246-6.191.548-1.063,1.047-1.94,1.233-2.257,0-.307,0-.657-.033-1.046,5.78,2.74,23.8,10.355,37.614,6.054a3.905,3.905,0,0,0,.066.756l.312.263A16.424,16.424,0,0,0,745.27,324.013Z" transform="translate(-248.197 54.312)" fill="#4b4442"/>
    <path id="Path_36" data-name="Path 36" d="M277.1,569.461a7.534,7.534,0,0,1-1.682-5.737L299.6,365.838,301.6,349.4a7.589,7.589,0,0,1,7.473-6.663l70.839-.471a7.578,7.578,0,0,0,7.528-7.786l-.027-.751a7.583,7.583,0,0,1,7.577-7.841h74.438a7.577,7.577,0,0,1,7.578,7.561,8.075,8.075,0,0,1-.066,1.019,7.577,7.577,0,0,0,7.32,8.58l71.491,1.825a7.572,7.572,0,0,1,7.276,8.854l-35.74,208.752-.674,3.945a7.413,7.413,0,0,1-1.1,2.827Z" transform="translate(-53.487 48.666)" fill="#b7b6cc"/>
    <path id="Path_37" data-name="Path 37" d="M0,0H144.006V44.03H0Z" transform="matrix(0.568, -0.823, 0.823, 0.568, 356.883, 449.508)" opacity="0.5" fill="url(#linear-gradient-3)"/>
    <path id="Path_38" data-name="Path 38" d="M605.65,249.373l34.44,23.794-80.76,116.892-34.44-23.794Z" transform="translate(-166.3 83.258)" fill="#f9fafb"/>
    <path id="Path_39" data-name="Path 39" d="M662.9,259.481l24.266,16.868L670.3,300.614,646.03,283.747Z" transform="translate(-221.066 78.689)" fill="#ff5f95"/>
    <path id="Path_40" data-name="Path 40" d="M628.243,312.852l24.347,16.821L635.769,354.02,611.422,337.2Z" transform="translate(-205.421 54.56)" fill="#fcb5c8" opacity="0.5"/>
    <path id="Path_41" data-name="Path 41" d="M591.168,366.5l24.347,16.821-16.821,24.347-24.347-16.821Z" transform="translate(-188.659 30.306)" fill="#f7b643" opacity="0.3"/>
    <path id="Path_42" data-name="Path 42" d="M0,0H143.469V44.03H0Z" transform="matrix(0.28, -0.96, 0.96, 0.28, 349.329, 461.685)" opacity="0.5" fill="url(#linear-gradient-4)"/>
    <path id="Path_43" data-name="Path 43" d="M550.719,236.01l40.18,11.742L551.2,383.61l-40.18-11.742Z" transform="translate(-160.028 89.3)" fill="#f9fafb"/>
    <path id="Path_44" data-name="Path 44" d="M586.257,243.168l28.4,8.3-8.3,28.4-28.4-8.3Z" transform="translate(-190.291 86.064)" fill="#49bed7"/>
    <path id="Path_45" data-name="Path 45" d="M567.965,305.755l28.4,8.3-8.3,28.4-28.4-8.3Z" transform="translate(-182.021 57.768)" fill="#9bd5e8" opacity="0.5"/>
    <path id="Path_46" data-name="Path 46" d="M549.675,368.333l28.4,8.3-8.3,28.4-28.4-8.3Z" transform="translate(-173.752 29.477)" fill="#f97878" opacity="0.3"/>
    <path id="Path_47" data-name="Path 47" d="M0,0H143.469V44.03H0Z" transform="matrix(0.08, -0.997, 0.997, 0.08, 349.405, 469.376)" opacity="0.5" fill="url(#linear-gradient-5)"/>
    <path id="Path_48" data-name="Path 48" d="M522.166,239.92l41.725,3.358L552.54,384.362l-41.725-3.357Z" transform="translate(-159.937 87.532)" fill="#f9fafb"/>
    <path id="Path_49" data-name="Path 49" d="M540.412,244.985l29.5,2.373-2.374,29.5-29.5-2.373Z" transform="translate(-172.245 85.242)" fill="#af57ff"/>
    <path id="Path_50" data-name="Path 50" d="M535.178,309.966l29.5,2.374-2.373,29.5-29.5-2.374Z" transform="translate(-169.878 55.865)" fill="#d7aafd" opacity="0.5"/>
    <path id="Path_51" data-name="Path 51" d="M529.952,374.968l29.5,2.374-2.374,29.5-29.5-2.374Z" transform="translate(-167.515 26.478)" fill="#73b53b" opacity="0.3"/>
    <path id="Path_52" data-name="Path 52" d="M0,0H44.03V143.469H0Z" transform="translate(341.969 332.227) rotate(-2.61)" opacity="0.5" fill="url(#linear-gradient-6)"/>
    <path id="Path_53" data-name="Path 53" d="M497.272,248.7l41.816-1.906,6.446,141.394-41.816,1.906Z" transform="translate(-153.814 84.424)" fill="#fff"/>
    <path id="Path_54" data-name="Path 54" d="M508.65,252.811l29.561-1.348,1.348,29.562L510,282.373Z" transform="translate(-158.958 82.314)" fill="#6d4fff"/>
    <path id="Path_55" data-name="Path 55" d="M513.734,315.772l29.592-1.479,1.479,29.592-29.592,1.479Z" transform="translate(-161.256 53.909)" fill="#b5a6ff" opacity="0.5"/>
    <path id="Path_56" data-name="Path 56" d="M514.585,383.085l29.562-1.347,1.348,29.562-29.562,1.348Z" transform="translate(-161.641 23.417)" fill="#bbb8fa" opacity="0.3"/>
    <path id="Path_57" data-name="Path 57" d="M370.2,459.087l-37.192,14.388L278.65,494.487c-2.055-3.835-5.079-9.018-8.821-15.2-12.876-21.336-34.178-54.522-53.147-83.687-21.368-32.874-39.761-60.615-39.761-60.615l13.314-3.835L298.993,299.57Z" transform="translate(-8.985 60.565)" fill="#e6ecf8"/>
    <path id="Path_58" data-name="Path 58" d="M381.189,459.087,344,473.475a279.547,279.547,0,0,1-63.2,5.808c-12.876-21.335-34.178-54.522-53.147-83.687L201.23,331.124,309.984,299.57Z" transform="translate(-19.975 60.565)" opacity="0.1"/>
    <path id="Path_59" data-name="Path 59" d="M404.586,437.033S346.81,471.211,260.548,463.48L191.78,295.821l32.956-5.665L338.668,270.59l64.653,163.183Z" transform="translate(-15.703 73.666)" fill="#ff9596"/>
    <path id="Path_60" data-name="Path 60" d="M430.492,433.813a273.094,273.094,0,0,1-45.18-1.288c-17.138-2.016-34.376-6.169-49.153-13.785-12.355-6.361-22.919-13.281-32.129-21.582-23.96-21.549-38.786-52.374-52.1-106.962L365.861,270.63Z" transform="translate(-42.896 73.648)" opacity="0.1"/>
    <path id="Path_61" data-name="Path 61" d="M466.5,384.152s-42.589,8.339-85.939,3.205c-17.138-2.016-34.376-6.169-49.153-13.785-12.355-6.361-22.913-13.281-32.129-21.582-29.653-26.678-45.312-67.562-61.458-150.126,0,0,70.8,17.089,140.812-20.344C378.61,181.547,402.208,328.813,466.5,384.152Z" transform="translate(-36.517 113.934)" fill="#f9fafb"/>
    <path id="Path_62" data-name="Path 62" d="M431.272,514.938c-17.139-2.016-34.376-6.169-49.153-13.785-12.355-6.361-22.913-13.281-32.129-21.582,25.248-2.049,28.875-15.851,28.875-15.851C397.581,493.422,431.272,514.938,431.272,514.938Z" transform="translate(-87.229 -13.647)" opacity="0.1"/>
    <path id="Path_63" data-name="Path 63" d="M304.66,261.045s57.574-3.255,73.649-15.665l2.438,7.835S342.707,270,304.66,270.2Zm0,38.682s55.744-3.052,97.861-23.4l1.425,3.255S370.524,299.1,304.66,304.2Zm4.487,15.073s55.744-3.052,97.856-23.4l1.425,3.255s-33.422,19.505-99.28,24.617Zm4.482,15.095s55.744-3.052,97.861-23.4l1.419,3.255s-33.422,19.511-99.28,24.617Zm4.487,15.095s55.744-3.052,97.856-23.4l1.425,3.255s-33.422,19.511-99.281,24.617Zm4.482,15.1s55.744-3.052,97.861-23.4l1.419,3.254s-33.422,19.505-99.28,24.617Z" transform="translate(-66.735 85.064)" fill="#bbb8fa" opacity="0.3"/>
    <path id="Path_64" data-name="Path 64" d="M1035.722,796.785s-23.165-1.4-20.436,14.837a3.947,3.947,0,0,0,2.06,4.169s.038-1.205,2.373-.794a10.64,10.64,0,0,0,2.52.12,5.2,5.2,0,0,0,3.074-1.271s6.515-2.69,9.046-13.331c0,0,1.874-2.323,1.8-2.92l-3.907,1.644s1.337,2.822.285,5.161c0,0-.126-5.057-.877-4.931-.153,0-2.033.975-2.033.975s2.3,4.931.548,8.482c0,0,.657-6.055-1.282-8.125l-2.74,1.605s2.684,5.074.866,9.216c0,0,.466-6.35-1.447-8.827l-2.493,1.945s2.526,5,.986,8.438c0,0-.2-7.4-1.528-7.956a14.176,14.176,0,0,0-2.51,2.74s1.726,3.627.652,5.545c0,0-.657-4.931-1.194-4.931,0,0-2.191,3.287-2.4,5.479a11.848,11.848,0,0,1,1.874-5.813,6.575,6.575,0,0,0-3.331,1.726s.34-2.312,3.868-2.509a15.4,15.4,0,0,1,2.274-2.63,14.312,14.312,0,0,0-5.633.652s1.874-2.192,6.279-1.189l2.46-2.005s-4.619-.636-6.575.066c0,0,2.252-1.929,7.238-.548l2.679-1.6a24.393,24.393,0,0,0-6.279-.548s2.471-1.337,7.068.109l1.912-.86s-2.882-.548-3.726-.657-.893-.318-.893-.318a9.939,9.939,0,0,1,5.419.6S1035.788,797.043,1035.722,796.785Z" transform="translate(-387.904 -164.21)" fill="#5ad4d6"/>
    <ellipse id="Ellipse_5" data-name="Ellipse 5" cx="16.393" cy="2.772" rx="16.393" ry="2.772" transform="translate(615.47 650.223)" fill="#5ad2d6" opacity="0.1"/>
    <ellipse id="Ellipse_6" data-name="Ellipse 6" cx="55.886" cy="5.063" rx="55.886" ry="5.063" transform="translate(460.972 637.583)" fill="#bbb8fa" opacity="0.1"/>
    <path id="Path_65" data-name="Path 65" d="M1062.86,698.986s-13.057-.789-11.506,8.366a2.23,2.23,0,0,0,1.156,2.351s.027-.679,1.342-.449a6.083,6.083,0,0,0,1.419.066,2.926,2.926,0,0,0,1.732-.712s3.671-1.518,5.1-7.517c0,0,1.057-1.309,1.014-1.644l-2.192.937a3.972,3.972,0,0,1,.159,2.915s-.071-2.855-.493-2.789c-.088,0-1.145.548-1.145.548s1.293,2.74.318,4.783c0,0,.373-3.413-.723-4.586l-1.551.91s1.512,2.86.488,5.194c0,0,.263-3.583-.817-4.975l-1.4,1.1s1.419,2.822.548,4.756c0,0-.115-4.17-.86-4.482a8.784,8.784,0,0,0-1.419,1.529s.976,2.049.373,3.129c0,0-.373-2.778-.674-2.789a9.161,9.161,0,0,0-1.353,3.1,6.709,6.709,0,0,1,1.057-3.287,3.67,3.67,0,0,0-1.879.975s.192-1.3,2.192-1.414a8.746,8.746,0,0,1,1.282-1.485,8.077,8.077,0,0,0-3.178.367s1.058-1.227,3.54-.668l1.392-1.134a11.456,11.456,0,0,0-3.709.038s1.271-1.1,4.082-.3l1.512-.9a13.653,13.653,0,0,0-3.545-.3,5.413,5.413,0,0,1,3.983.06l1.1-.482s-1.644-.323-2.1-.373-.5-.181-.5-.181a5.653,5.653,0,0,1,3.057.34,13.261,13.261,0,0,0,2.213-.986Z" transform="translate(-404.254 -120.001)" fill="#52c9d4"/>
    <ellipse id="Ellipse_7" data-name="Ellipse 7" cx="9.243" cy="1.562" rx="9.243" ry="1.562" transform="translate(640.378 588.934)" fill="#52c9d4" opacity="0.1"/>
    <path id="Path_66" data-name="Path 66" d="M920.18,713.483s-15.769-.953-13.906,10.1a2.691,2.691,0,0,0,1.4,2.838s0-.822,1.644-.548a7.193,7.193,0,0,0,1.715.082,3.539,3.539,0,0,0,2.093-.866s4.433-1.83,6.159-9.073c0,0,1.277-1.578,1.222-1.989l-2.69,1.14a4.756,4.756,0,0,1,.192,3.512s-.088-3.441-.6-3.364c-.1,0-1.381.668-1.381.668s1.562,3.342.384,5.775c0,0,.449-4.12-.871-5.534l-1.874,1.1s1.824,3.457.586,6.274c0,0,.318-4.323-.981-6.027l-1.7,1.326s1.72,3.4.668,5.742c0,0-.132-5.035-1.036-5.413a10.31,10.31,0,0,0-1.709,1.846s1.173,2.471.444,3.775c0,0-.449-3.353-.816-3.369a11.464,11.464,0,0,0-1.644,3.742,8.092,8.092,0,0,1,1.277-3.956,4.437,4.437,0,0,0-2.263,1.178s.23-1.572,2.63-1.71a10.108,10.108,0,0,1,1.55-1.786,9.71,9.71,0,0,0-3.835.438s1.271-1.479,4.268-.805l1.677-1.37s-3.14-.427-4.476.044c0,0,1.534-1.309,4.931-.351l1.825-1.1a16.585,16.585,0,0,0-4.279-.367s1.688-.909,4.811.077l1.3-.586s-1.961-.383-2.537-.444-.6-.219-.6-.219a6.773,6.773,0,0,1,3.687.406A16.894,16.894,0,0,0,920.18,713.483Z" transform="translate(-338.652 -126.554)" fill="#5ad4d6"/>
    <ellipse id="Ellipse_8" data-name="Ellipse 8" cx="11.161" cy="1.885" rx="11.161" ry="1.885" transform="translate(559.507 598.945)" fill="#57cfd5" opacity="0.1"/>
    <ellipse id="Ellipse_9" data-name="Ellipse 9" cx="16.393" cy="2.772" rx="16.393" ry="2.772" transform="translate(84.55 641.961)" fill="#bbb8fa" opacity="0.1"/>
    <path id="Path_67" data-name="Path 67" d="M34.56,791.331s9.347-.285,12.169-2.29,14.383-4.383,15.084-1.189,14.054,16.01,3.5,16.1-24.53-1.644-27.346-3.359S34.56,791.331,34.56,791.331Z" transform="translate(55.376 -159.479)" fill="#0b1523"/>
    <path id="Path_68" data-name="Path 68" d="M65.486,806.976c-10.558.088-24.53-1.644-27.346-3.359-2.137-1.3-2.992-5.989-3.287-8.147H34.54s.592,7.545,3.4,9.26,16.826,3.452,27.357,3.4c3.046-.027,4.1-1.1,4.044-2.739C68.916,806.351,67.754,806.96,65.486,806.976Z" transform="translate(55.385 -163.629)" opacity="0.2"/>
    <path id="Path_69" data-name="Path 69" d="M0,0H93.511V167.341H0Z" transform="matrix(0.309, -0.951, 0.951, 0.309, 503.685, 284.929)" fill="url(#linear-gradient-7)"/>
    <path id="Path_70" data-name="Path 70" d="M792.078,89.479l28.514-87.7L977.534,52.8,949.02,140.5Z" transform="translate(-287.094 195.197)" fill="#f6f7f9"/>
    <circle id="Ellipse_10" data-name="Ellipse 10" cx="17.182" cy="17.182" r="17.182" transform="translate(533.202 228.331)" fill="#bbb8fa" opacity="0.2"/>
    <path id="Path_71" data-name="Path 71" d="M940.782,81.031l1.455-4.476L1013.43,99.7l-1.455,4.476Zm-3.71,11.412,1.455-4.476,36.266,11.791-1.455,4.476Zm-3.717,11.419,1.455-4.476,58.655,19.07-1.455,4.476Zm-3.709,11.415L931.1,110.8l71.192,23.146-1.455,4.476Z" transform="translate(-349.288 161.389)" fill="#bbb8fa" opacity="0.2"/>
    <path id="Path_72" data-name="Path 72" d="M1011.37,208.347l2.813-8.655,19.7,6.4-2.814,8.655Z" transform="translate(-386.235 105.719)" fill="#bbb8fa" opacity="0.5"/>
    <path id="Path_73" data-name="Path 73" d="M874.751,474.5a5.026,5.026,0,0,0-.055-.548,2.78,2.78,0,0,0-.093-.548c-.071-.373-.148-.74-.236-1.1-.044-.17-.088-.345-.137-.51a13.892,13.892,0,0,0-2.74-5.3c-.071-.088-.148-.17-.219-.252s-.3-.318-.444-.466-.285-.279-.427-.405-.274-.241-.405-.351c-.263-.214-.51-.395-.723-.548a4.5,4.5,0,0,0-.444-.285,2.433,2.433,0,0,0-1.03-.334l-2.274-.225-3.107-.307-11.106-4.312-.438.153a25.164,25.164,0,0,1-.822-2.74,2.452,2.452,0,0,0,.876-.641,2,2,0,0,0,.6-.773c.279-.646-.257-2.022-.148-2.811a13.259,13.259,0,0,1,1.37-3.633,16.851,16.851,0,0,0,1.836-7.83,8.832,8.832,0,0,0-3.649-6.947c-1.178-.783-2.564-1.2-3.792-1.912-.953-.548-1.792-1.282-2.7-1.907a15.528,15.528,0,0,0-15.3-1.1c-2.307,1.134-4.274,2.833-6.449,4.2s-4.739,2.411-7.287,2.005a1.781,1.781,0,0,0-.077.318l-.214-.027c-.438,1.194.635,2.378,1.644,3.194,1.879,1.551,4.011,3.1,6.46,3.151a6.786,6.786,0,0,1,2.811.208,2.571,2.571,0,0,1,.548.329,12.207,12.207,0,0,0,3.835,12.169l-5.671-2.038s-.235.121-.6.351l-7.868-5.238s-15.774-5.72-20.157,3.189,19,4.312,19,4.312l5,2.74a4.553,4.553,0,0,0,.548,3L834.3,469.17a72.044,72.044,0,0,1-8.087,2.192c-1.167,0-4.383,1.151-6.427,5.748s-9.353,27.023-15.78,30.759-23.374,28.749-23.374,28.749l.077.2c-.3.082-.6.164-.888.263a17.959,17.959,0,0,0-8.8,6.641,2.816,2.816,0,0,0,1.972,4.444c6.69.849,10.344-2.236,12.1-4.564.115-.148.219-.3.318-.444a2.338,2.338,0,0,0,1.644.077l8.18-6.613s-6.4,6.3-2.646,12.054l-.285.4a91.446,91.446,0,0,0-13.7,29.817s-3.507,2.586-3.8,12.936-3.8,27.023-3.8,27.023-2.334,19.84-.877,25.872c0,0,.17.241.482.608-.11.132-.23.274-.362.416-1.277,1.381-3.578,3.287-6.257,2.74-4.087-.866-4.087,6.323,1.753,6.9a155.684,155.684,0,0,1,15.955,3.2A3.359,3.359,0,0,0,785.87,655a30.348,30.348,0,0,0-1.753-7.912c-.06-.137-.121-.274-.181-.4.17-.164.345-.329.515-.5,0,0,0-12.651,2.049-16.1,0,0,5.55-26.163,5.254-32.776-.225-5.172,14.4-25.319,20.771-33.828l-.055-.323c1.644-2.192,2.663-3.507,2.663-3.507l4.926,31.34s2.34,6.9,5.26,10.635c0,0,12.563,23.861,14.026,31.335a23.567,23.567,0,0,0,4.427,10.312l-.378.362c-1.332,1.222-3.287,2.444-5.512,1.978-4.087-.866-4.087,6.323,1.753,6.9a156.945,156.945,0,0,1,15.95,3.205,3.364,3.364,0,0,0,4.169-3.589c-.334-2.992-.986-6.712-2.246-8.909a6.152,6.152,0,0,0-.334-.548,3.082,3.082,0,0,0,1.161-.817s-7.6-18.114-7.6-23.012c0,0-3.211-18.683-14.021-25.582,0,0,1.019-23.374,4.1-36.381.077-.318.154-.636.23-.942a86.738,86.738,0,0,0,8.526-1.775l.29-8.624,1.463,6.9,16.36-10.06s-.143-1.814-.416-4.591c-.143-1.392-.312-3.024-.515-4.794-.164-1.414-.351-2.915-.548-4.449-.055-.384-.1-.772-.159-1.156-.214-1.55-.449-3.118-.7-4.652q-.148-.866-.3-1.71c-.137-.751-.274-1.485-.416-2.192-.071-.356-.148-.712-.219-1.057s-.154-.69-.23-1.025-.153-.657-.23-.981c-.044-.159-.082-.318-.121-.471-.082-.312-.165-.619-.247-.915a16.434,16.434,0,0,1-.592-3.77V509.1a10.86,10.86,0,0,1,.148-1.512c.033-.247.077-.5.126-.745a16.737,16.737,0,0,1,.827-2.937c.181-.477.389-.948.614-1.414.548-1.1,1.1-2.263,1.677-3.507.3-.619.592-1.255.888-1.9s.6-1.3.9-1.972c2.844-6.339,5.649-13.4,6.4-18.043.077-.488.137-.948.164-1.381a8.822,8.822,0,0,0,.016-1.183Z" transform="translate(-291.476 -13.886)" fill="url(#linear-gradient-8)"/>
    <path id="Path_74" data-name="Path 74" d="M821.374,444.709l-9.638-6.515s-15.3-5.671-19.555,3.118,18.421,4.252,18.421,4.252l9.638,5.38Z" transform="translate(-286.901 -1.293)" fill="#ae6e79"/>
    <path id="Path_75" data-name="Path 75" d="M655.062,486.241,704.91,408.7l120.711,77.6-49.848,77.541Z" transform="translate(-225.15 11.228)" fill="#f9fafb"/>
    <path id="Path_76" data-name="Path 76" d="M687.708,504.139l13.986-22.013,5.18,3.291L692.887,507.43Zm16.555,4.459,30.717-48.346,4.749,3.018-30.716,48.345Zm10.146,6.441,30.717-48.346,4.749,3.017-30.717,48.345Zm10.143,6.451,30.717-48.346,4.749,3.018L729.3,524.507Zm10.5,9.346,30.93-48.113,4.727,3.038-30.931,48.114Z" transform="translate(-239.909 -12.079)" fill="#b7b6cc"/>
    <path id="Path_77" data-name="Path 77" d="M791.983,555.65,822.7,507.3l4.75,3.018-30.717,48.346Zm10.146,6.441,30.717-48.346,4.749,3.018-30.716,48.345Z" transform="translate(-287.051 -33.351)" fill="#fff"/>
    <path id="Path_78" data-name="Path 78" d="M888.242,546.842l7.953-12.518,12.519,7.954L900.761,554.8Z" transform="translate(-330.57 -45.566)" fill="#b7b6cc"/>
    <path id="Path_79" data-name="Path 79" d="M822.293,801.992a150.465,150.465,0,0,0-15.473-3.156c-5.671-.548-5.671-7.671-1.7-6.8,2.148.466,4.055-.745,5.342-1.945a12.52,12.52,0,0,0,1.1-1.2,3.287,3.287,0,0,1,1.835-1.123c2.126-.46,6.575-1.162,9.265.3a4,4,0,0,1,1.469,1.611c1.222,2.192,1.857,5.835,2.192,8.766a3.287,3.287,0,0,1-4.027,3.55Zm-71.7,2.833a150.128,150.128,0,0,0-15.467-3.156c-5.671-.548-5.671-7.671-1.7-6.8,2.6.548,4.833-1.32,6.065-2.679.153-.164.29-.323.405-.471a3.285,3.285,0,0,1,1.83-1.1c2.126-.466,6.575-1.167,9.27.3a5.015,5.015,0,0,1,1.945,2.592,30.673,30.673,0,0,1,1.7,7.8,3.287,3.287,0,0,1-4.043,3.512Z" transform="translate(-259.312 -159.883)" fill="#bebed0"/>
    <path id="Path_80" data-name="Path 80" d="M760.241,793.494c-6.767,6.975-12.569-.131-13.451-1.3.153-.164.29-.323.406-.471a3.287,3.287,0,0,1,1.83-1.1c2.126-.466,6.575-1.167,9.271.3A4.729,4.729,0,0,1,760.241,793.494Zm71.222-3.819c-2.931,2-12.8,1.507-12.8,1.507a9.239,9.239,0,0,1-.893-1.1,12.527,12.527,0,0,0,1.1-1.2,3.288,3.288,0,0,1,1.835-1.123c2.126-.46,6.575-1.162,9.265.3a4,4,0,0,1,1.5,1.611Z" transform="translate(-266.62 -159.883)" opacity="0.1"/>
    <path id="Path_81" data-name="Path 81" d="M831.508,710.772c-1.989,2.553-13.32,1.983-13.32,1.983s-3.4-3.4-4.822-10.766-13.6-30.891-13.6-30.891c-2.833-3.687-5.1-10.487-5.1-10.487l-4.816-30.891s-23.237,30.606-22.952,37.126-5.106,32.326-5.106,32.326c-1.983,3.4-1.983,15.889-1.983,15.889-7.364,7.671-13.6-1.419-13.6-1.419-1.419-5.95.849-25.5.849-25.5s3.4-16.437,3.682-26.639,3.687-12.75,3.687-12.75a90.881,90.881,0,0,1,13.309-29.4c1.71-2.449,2.844-3.759,2.844-3.759l45.909,5.386a28.918,28.918,0,0,0-1.972,6.082c-2.986,12.821-3.978,35.86-3.978,35.86,10.487,6.8,13.6,25.2,13.6,25.2C824.139,692.916,831.508,710.772,831.508,710.772Z" transform="translate(-266.144 -82.306)" fill="url(#linear-gradient-9)"/>
    <g id="Group_4" data-name="Group 4" transform="translate(486.109 533.273)" opacity="0.05">
      <path id="Path_82" data-name="Path 82" d="M792.7,645.155l-.592-3.775s-23.237,30.606-22.952,37.126-5.1,32.326-5.1,32.326c-1.989,3.4-1.989,15.889-1.989,15.889a9.686,9.686,0,0,1-4.433,2.844c2.23.586,4.931.154,7.835-2.844,0,0,0-12.47,1.983-15.889,0,0,5.386-25.79,5.1-32.326-.219-5.1,13.966-24.968,20.147-33.351Z" transform="translate(-757.63 -627.239)"/>
      <path id="Path_83" data-name="Path 83" d="M844.895,688.091s-3.118-18.421-13.6-25.2c0,0,.992-23.039,3.972-35.86a28.868,28.868,0,0,1,1.978-6.082l-45.909-5.375s-.11.12-.307.362l42.813,5.024a28.882,28.882,0,0,0-1.972,6.082c-2.986,12.821-3.978,35.86-3.978,35.86,10.487,6.8,13.6,25.2,13.6,25.2,0,4.816,7.369,22.672,7.369,22.672-1.173,1.5-5.589,1.923-9.024,2.016,2.739.071,10.777.1,12.421-2.016C852.264,710.763,844.895,692.907,844.895,688.091Z" transform="translate(-772.73 -615.57)"/>
    </g>
    <path id="Path_84" data-name="Path 84" d="M762.75,604.279a10.352,10.352,0,0,1-1.343,2.345c-1.7,2.3-5.249,5.331-11.736,4.5a2.789,2.789,0,0,1-1.918-4.383,17.462,17.462,0,0,1,8.542-6.575,15.593,15.593,0,0,1,3.622-.734Z" transform="translate(-266.822 -75)" fill="#ae6e79"/>
    <path id="Path_85" data-name="Path 85" d="M862.275,456.762l-22.727-8.312s-6.52,3.4-3.967,8.219l22.13,13.889Z" transform="translate(-306.493 -6.743)" fill="#fff"/>
    <path id="Path_86" data-name="Path 86" d="M862.43,456.932,839.7,448.62s-6.52,3.4-3.967,8.219l22.1,13.884Z" transform="translate(-309.561 -9.82)" fill="#fff" opacity="0.1"/>
    <path id="Path_87" data-name="Path 87" d="M876.178,438.158s-.285,13.32,5.671,17.856-17.292,7.085-17.292,7.085,3.688-13.6,0-20.689S876.178,438.158,876.178,438.158Z" transform="translate(-319.602 -1.838)" fill="#ae6e79"/>
    <path id="Path_88" data-name="Path 88" d="M824.637,613.654a28.912,28.912,0,0,0-1.972,6.082c-27.4,4.186-46.49-7.216-46.49-7.216-.1-.164-.2-.329-.29-.493,1.709-2.449,2.844-3.759,2.844-3.759ZM770.224,604.3a10.344,10.344,0,0,1-1.342,2.345c-2.624-.438-4.723-5.479-5.112-6.432a15.6,15.6,0,0,1,3.621-.734Z" transform="translate(-274.296 -75.023)" opacity="0.1"/>
    <path id="Path_89" data-name="Path 89" d="M833.791,460.35l-10.2,3.682-4.252,5.671s-8.767,2.833-9.917,2.833-4.252,1.134-6.235,5.665-9.068,26.65-15.3,30.327-22.672,28.338-22.672,28.338,2.833,7.671,6.235,6.52l7.934-6.52s-6.235,6.235-2.553,11.906c0,0,23.242,13.884,55.267,5.38l.28-8.5,1.419,6.8,15.889-9.917s-1.419-18.295-3.978-27.6a16.831,16.831,0,0,1,1.1-11.731c4.115-8.575,10.465-22.9,9.693-28.118-.915-6.153-4.383-8.827-5.72-9.632a2.364,2.364,0,0,0-1-.334l-5.189-.515Z" transform="translate(-274.947 -12.123)" fill="#fff"/>
    <path id="Path_90" data-name="Path 90" d="M829.338,512.33s-5.671,26.354-11.906,30.606-22.952,17.856-23.522,20.125" transform="translate(-287.922 -35.623)" opacity="0.05"/>
    <path id="Path_91" data-name="Path 91" d="M824.682,510.78s-5.665,26.354-11.9,30.606-22.957,17.856-23.522,20.119" transform="translate(-285.82 -34.922)" fill="#fff"/>
    <path id="Path_92" data-name="Path 92" d="M863.74,472.949s19.555-6.52,25.2-4.822" transform="translate(-319.492 -15.511)" opacity="0.1"/>
    <g id="Group_5" data-name="Group 5" transform="translate(557.885 448.227)" opacity="0.05">
      <path id="Path_93" data-name="Path 93" d="M902.569,503.207c4.115-8.575,10.465-22.9,9.692-28.119-.915-6.153-4.383-8.827-5.72-9.632a2.366,2.366,0,0,0-1-.334l-2.192-.219a2.194,2.194,0,0,1,.657.268c1.326.811,4.805,3.479,5.714,9.638.773,5.216-5.578,19.544-9.687,28.119a16.821,16.821,0,0,0-1.1,11.725c2.564,9.314,3.983,27.6,3.983,27.6L889.26,550.8l.345,1.644,15.889-9.917s-1.419-18.294-3.978-27.6a16.832,16.832,0,0,1,1.052-11.714Zm-4.761-38.89,2.455.247-10.673-4.213-.959.345Z" transform="translate(-888.63 -460.35)"/>
    </g>
    <path id="Path_94" data-name="Path 94" d="M853.91,506.12s8.766-4.816,11.621-3.682,13.32-.285,13.32-.285m-8.2-59.513c-.323-2.844.992-2.411.992-2.411s-15.3-2.833-11.621,4.252a16.231,16.231,0,0,1,1.556,6.23h.148C865.975,450.715,868.457,445.96,870.649,442.639Z" transform="translate(-315.048 -2.773)" opacity="0.05"/>
    <circle id="Ellipse_11" data-name="Ellipse 11" cx="12.185" cy="12.185" r="12.185" transform="translate(534.473 422.437)" fill="#ae6e79"/>
    <path id="Path_95" data-name="Path 95" d="M862.5,424.844a16.985,16.985,0,0,0,1.781-7.72,8.754,8.754,0,0,0-3.539-6.854c-1.14-.767-2.487-1.178-3.676-1.879-.926-.548-1.742-1.266-2.624-1.879a14.854,14.854,0,0,0-14.837-1.1c-2.235,1.1-4.142,2.8-6.252,4.142s-4.6,2.372-7.068,1.978c-.427,1.178.619,2.34,1.578,3.15,1.825,1.529,3.89,3.052,6.268,3.1a6.559,6.559,0,0,1,2.739.208,3.926,3.926,0,0,1,1.392,1.293,25.51,25.51,0,0,1,2.893,4.9,4.066,4.066,0,0,0,1.293,1.907c1.1.7,2.515.115,3.835.066,2.016-.082,3.835,1.189,5.325,2.548s2.915,2.915,4.8,3.633c1.408.548,4.224.515,4.931-1.167.268-.636-.252-1.994-.143-2.772A13.416,13.416,0,0,1,862.5,424.844Z" transform="translate(-302.512 13.383)" opacity="0.1"/>
    <path id="Path_96" data-name="Path 96" d="M862.959,424.314a16.906,16.906,0,0,0,1.781-7.714,8.764,8.764,0,0,0-3.534-6.854c-1.145-.773-2.493-1.184-3.676-1.885-.926-.548-1.742-1.26-2.624-1.879a14.854,14.854,0,0,0-14.837-1.1c-2.235,1.1-4.142,2.794-6.252,4.137s-4.6,2.378-7.068,1.978c-.427,1.184.613,2.345,1.578,3.151,1.825,1.529,3.89,3.052,6.268,3.107a6.471,6.471,0,0,1,2.74.208,3.835,3.835,0,0,1,1.392,1.293,25.2,25.2,0,0,1,2.888,4.9,4.077,4.077,0,0,0,1.3,1.907c1.1.7,2.515.115,3.835.066,2.016-.077,3.835,1.194,5.32,2.553s2.915,2.909,4.8,3.627c1.408.548,4.224.515,4.931-1.167.274-.636-.247-1.994-.137-2.772A13.4,13.4,0,0,1,862.959,424.314Z" transform="translate(-302.724 13.623)" fill="#42383c"/>
    <path id="Path_97" data-name="Path 97" d="M525.51,600.537a5.65,5.65,0,0,1-3.627,1.282L277.1,600.778a7.534,7.534,0,0,1-1.682-5.736L299.6,397.154l15.166-.164a5.731,5.731,0,0,1,5.589,4.23l2.833,10.454a5.731,5.731,0,0,0,5.665,4.23l60.527-1.452a5.731,5.731,0,0,0,5.594-5.731v-6.926a5.731,5.731,0,0,1,5.666-5.731l83.873-.9a5.731,5.731,0,0,1,5.682,4.652L527.285,593.77l.241,1.249a5.7,5.7,0,0,1-2.016,5.517Z" transform="translate(-53.487 17.349)" opacity="0.1"/>
    <path id="Path_98" data-name="Path 98" d="M440.628,400.17l-83.873.9a5.731,5.731,0,0,0-5.671,5.726v6.931a5.731,5.731,0,0,1-5.589,5.726l-60.522,1.452a5.726,5.726,0,0,1-5.671-4.23l-2.844-10.449a5.726,5.726,0,0,0-5.594-4.23l-80.843.871a5.726,5.726,0,0,0-5.589,6.684l32.524,191.416a5.731,5.731,0,0,0,5.627,4.772l255.4,1.1a5.731,5.731,0,0,0,5.649-6.8L446.31,404.822a5.726,5.726,0,0,0-5.682-4.652Z" transform="translate(-12.345 15.084)" fill="#0b1523"/>
    <path id="Path_99" data-name="Path 99" d="M846.644,144.1l-.438,4.876.318,8.624-.926,14.547s-.132,6.372-3.731,9.358l-9.188,14.109-.055.027-3.457,1.688-5.276.548-2.74-6.635,1.814-7.287,1.008-1.359.279-.307c1.1-1.205,5.326-5.583,8.684-6.947a4.754,4.754,0,0,0,1.846-4.219c-.394-2.575,3.025-16.262,3.025-16.262s2.192-9.051,1.715-9.934S839.434,124,846.995,123.7s-.351,20.4-.351,20.4Z" transform="translate(-300.237 140.077)" fill="#f6bac2"/>
    <ellipse id="Ellipse_12" data-name="Ellipse 12" cx="8.882" cy="1.222" rx="8.882" ry="1.222" transform="translate(145.088 578.793)" fill="#bbb8fa" opacity="0.1"/>
    <ellipse id="Ellipse_13" data-name="Ellipse 13" cx="8.882" cy="1.222" rx="8.882" ry="1.222" transform="translate(111.068 582.239)" fill="#bbb8fa" opacity="0.1"/>
    <ellipse id="Ellipse_14" data-name="Ellipse 14" cx="8.882" cy="1.222" rx="8.882" ry="1.222" transform="translate(71 577.571)" fill="#bbb8fa" opacity="0.1"/>
    <ellipse id="Ellipse_15" data-name="Ellipse 15" cx="6.312" cy="0.866" rx="6.312" ry="0.866" transform="translate(127.253 592.419)" fill="#bbb8fa" opacity="0.1"/>
    <ellipse id="Ellipse_16" data-name="Ellipse 16" cx="6.312" cy="0.866" rx="6.312" ry="0.866" transform="translate(91.946 591.553)" fill="#bbb8fa" opacity="0.1"/>
    <path id="Path_100" data-name="Path 100" d="M57.785,651.037s12.454-40.83-1.951-57.185c-10.777-12.235-23.012-10.772-28.491-9.26a10.13,10.13,0,0,0-6.531,5.43c-1.918,4.131-1.572,10.838,11.95,18.667C55.4,621.8,56.8,639.772,56.8,639.772Z" transform="translate(61.973 -67.845)" fill="#55ced8"/>
    <path id="Path_101" data-name="Path 101" d="M37,595.98s36.71,11.506,28.491,60.653m-7.046-56.538S53.388,603.5,55,608.626m-14.317-5.5s3.09-3.145,6.854-1.408m7.66,17.221s5.43-2.74,6.832.7m6.6,5.041s-4.076-.323-4.148,1.644" transform="translate(54.272 -73.441)" fill="none" stroke="#565987" stroke-miterlimit="10" stroke-width="1"/>
    <path id="Path_102" data-name="Path 102" d="M71.748,683.3s-14.591-29.675-18.6-29.039c-1.9.312-2.778,2.192-3.178,4.065a11.939,11.939,0,0,0,.794,7.222C52.84,670.315,58.4,679.328,71.748,683.3Z" transform="translate(48.514 -99.785)" fill="#55ced8"/>
    <path id="Path_103" data-name="Path 103" d="M55.008,664.57s15.308,22.2,18.267,23.176M53.6,668.038h3.572m.707,8.12,5.605.241m-2.192-6.739-.608,2.92m6.564,5.961-.11,2.652" transform="translate(46.768 -104.45)" fill="none" stroke="#565987" stroke-miterlimit="10" stroke-width="1"/>
    <path id="Path_104" data-name="Path 104" d="M89.12,683.3s14.585-29.675,18.59-29.039c1.907.312,2.783,2.192,3.178,4.065a11.939,11.939,0,0,1-.794,7.222C108.023,670.315,102.456,679.328,89.12,683.3Z" transform="translate(30.709 -99.785)" fill="#55ced8"/>
    <path id="Path_105" data-name="Path 105" d="M107.783,664.57s-15.341,22.2-18.273,23.176m19.681-19.708h-3.572m-.707,8.12-5.605.241m2.192-6.739.608,2.92m-6.564,5.961.11,2.652" transform="translate(30.533 -104.45)" fill="none" stroke="#565987" stroke-miterlimit="10" stroke-width="1"/>
    <path id="Path_106" data-name="Path 106" d="M28.422,699.983a2.521,2.521,0,0,1-.827-1.255,1.1,1.1,0,0,1,.581-1.277,1.61,1.61,0,0,1,1.534.548,1.96,1.96,0,0,0,1.485.7,2.268,2.268,0,0,1-.7-2.126.866.866,0,0,1,.192-.433c.3-.318.833-.181,1.189.071a4.5,4.5,0,0,1,1.446,3.7,7.067,7.067,0,0,0,0-1.523,1.562,1.562,0,0,1,.614-1.332,1.709,1.709,0,0,1,.871-.208,1.808,1.808,0,0,1,1.419.405,1.408,1.408,0,0,1-.055,1.737,5.588,5.588,0,0,1-1.468,1.173,3.289,3.289,0,0,0-1.047,1,.736.736,0,0,0-.077.175H30.389a8.848,8.848,0,0,1-1.967-1.353Zm55.585-11.955a2.482,2.482,0,0,1-.827-1.249,1.1,1.1,0,0,1,.575-1.277,1.61,1.61,0,0,1,1.534.548,2.019,2.019,0,0,0,1.5.718,2.268,2.268,0,0,1-.707-2.12.872.872,0,0,1,.2-.433c.3-.318.833-.181,1.189.066a4.434,4.434,0,0,1,1.446,3.7,7.121,7.121,0,0,0,0-1.529,1.567,1.567,0,0,1,.548-1.348,1.747,1.747,0,0,1,.871-.2,1.829,1.829,0,0,1,1.419.4,1.408,1.408,0,0,1-.06,1.742,5.478,5.478,0,0,1-1.463,1.173,3.253,3.253,0,0,0-1.047,1,.9.9,0,0,0-.077.181H85.984A8.773,8.773,0,0,1,84.007,688.027ZM65.482,699.983a2.57,2.57,0,0,1-.833-1.255,1.1,1.1,0,0,1,.581-1.277,1.61,1.61,0,0,1,1.534.548,2.037,2.037,0,0,0,1.5.723,2.285,2.285,0,0,1-.707-2.126.87.87,0,0,1,.2-.433c.3-.318.833-.181,1.189.071a4.433,4.433,0,0,1,1.446,3.7,7.073,7.073,0,0,0,0-1.523,1.567,1.567,0,0,1,.575-1.348,1.694,1.694,0,0,1,.871-.208,1.814,1.814,0,0,1,1.419.406,1.4,1.4,0,0,1-.06,1.737,5.563,5.563,0,0,1-1.463,1.173,3.286,3.286,0,0,0-1.046,1,.732.732,0,0,0-.077.175H67.427A8.94,8.94,0,0,1,65.482,699.983ZM12.943,675.82s-1.189,1.556.548,3.907,3.172,4.334,2.592,5.8c0,0-2.624-4.383-4.761-4.422S10.593,678.423,12.943,675.82Z" transform="translate(66.358 -109.536)" fill="#55ced8"/>
    <path id="Path_107" data-name="Path 107" d="M12.946,675.82a1.964,1.964,0,0,0-.241.488c-2.082,2.449-3.194,4.734-1.189,4.794,1.863.055,4.1,3.386,4.635,4.23a1.948,1.948,0,0,1-.06.192s-2.624-4.383-4.761-4.422S10.6,678.422,12.946,675.82Z" transform="translate(66.354 -109.536)" opacity="0.1"/>
    <path id="Path_108" data-name="Path 108" d="M11.12,679.15c0,.548.06.992.137.992s.137-.444.137-.992-.077-.29-.153-.29S11.12,678.6,11.12,679.15Z" transform="translate(65.973 -110.883)" fill="#ffd037"/>
    <path id="Path_109" data-name="Path 109" d="M9.487,680.33c.482.263.9.416.937.351s-.323-.329-.805-.592-.29-.071-.329,0S9.005,680.067,9.487,680.33Z" transform="translate(66.844 -111.405)" fill="#ffd037"/>
    <path id="Path_110" data-name="Path 110" d="M23.921,675.82s1.194,1.556-.548,3.907-3.172,4.334-2.592,5.8c0,0,2.624-4.383,4.761-4.422S26.272,678.423,23.921,675.82Z" transform="translate(61.664 -109.536)" fill="#bbb8fa"/>
    <path id="Path_111" data-name="Path 111" d="M23.975,675.82a2.075,2.075,0,0,1,.247.488c2.082,2.449,3.194,4.734,1.189,4.794-1.863.055-4.1,3.386-4.641,4.23a1.126,1.126,0,0,0,.066.192S23.46,681.14,25.6,681.1s.729-2.679-1.622-5.282Z" transform="translate(61.61 -109.536)" opacity="0.1"/>
    <path id="Path_112" data-name="Path 112" d="M30.434,679.15c0,.548-.06.992-.137.992s-.137-.444-.137-.992.077-.29.153-.29S30.434,678.6,30.434,679.15Z" transform="translate(57.365 -110.883)" fill="#ffd037"/>
    <path id="Path_113" data-name="Path 113" d="M31.275,680.33c-.482.263-.9.416-.937.351s.323-.329.805-.592.29-.071.323,0S31.752,680.067,31.275,680.33Z" transform="translate(57.285 -111.405)" fill="#ffd037"/>
    <path id="Path_114" data-name="Path 114" d="M19.754,691.677s-3.326-.1-4.328-.816-5.117-1.567-5.369-.422-5,5.7-1.244,5.726,8.728-.586,9.731-1.195,1.211-3.293,1.211-3.293Z" transform="translate(67.667 -115.892)" fill="#0b1523"/>
    <path id="Path_115" data-name="Path 115" d="M8.749,697.243c3.759.033,8.728-.581,9.731-1.194.762-.46,1.063-2.126,1.167-2.9h.11s-.208,2.685-1.211,3.288-5.972,1.227-9.731,1.194c-1.1,0-1.457-.394-1.436-.964.148.356.592.548,1.37.575Z" transform="translate(67.664 -117.371)" opacity="0.2"/>
    <path id="Path_116" data-name="Path 116" d="M429.425,581.88l-.7-.7a.75.75,0,0,1,0-1.1l6.153-6.159a.751.751,0,0,1,1.1,0l6.153,6.153a.762.762,0,0,1,0,1.1l-.7.7a.762.762,0,0,1-1.1,0l-3.638-3.835v9.1a.756.756,0,0,1-.756.762h-1.014a.762.762,0,0,1-.762-.762v-9.09l-3.638,3.835a.762.762,0,0,1-1.1-.005Z" transform="translate(-122.716 -63.362)" fill="#f6f7f9"/>
    <path id="Path_117" data-name="Path 117" d="M429.47,562.554a12.487,12.487,0,1,1-12.487,12.487,12.487,12.487,0,0,1,12.487-12.487m0-1.644a14.13,14.13,0,1,0,14.13,14.13A14.13,14.13,0,0,0,429.47,560.91Z" transform="translate(-116.773 -57.586)" fill="#f6f7f9"/>
  </g>
</svg>
