<svg xmlns="http://www.w3.org/2000/svg" width="121.667" height="106.458" viewBox="0 0 121.667 106.458">
  <path id="quote-left-solid" d="M110.261,85.229H91.25V70.021a15.222,15.222,0,0,1,15.208-15.208h1.9a5.689,5.689,0,0,0,5.7-5.7V37.7a5.689,5.689,0,0,0-5.7-5.7h-1.9A38.01,38.01,0,0,0,68.438,70.021v57.031a11.409,11.409,0,0,0,11.406,11.406h30.417a11.409,11.409,0,0,0,11.406-11.406V96.636A11.409,11.409,0,0,0,110.261,85.229Zm-68.438,0H22.813V70.021A15.222,15.222,0,0,1,38.021,54.813h1.9a5.689,5.689,0,0,0,5.7-5.7V37.7a5.689,5.689,0,0,0-5.7-5.7h-1.9A38.01,38.01,0,0,0,0,70.021v57.031a11.409,11.409,0,0,0,11.406,11.406H41.823a11.409,11.409,0,0,0,11.406-11.406V96.636A11.409,11.409,0,0,0,41.823,85.229Z" transform="translate(0 -32)" fill="#65e2d9"/>
</svg>
