<svg xmlns="http://www.w3.org/2000/svg" width="148.379" height="122.334" viewBox="0 0 148.379 122.334">
  <g id="Group_11" data-name="Group 11" transform="translate(-313.35 -1386.35)">
    <path id="Path_127" data-name="Path 127" d="M58.847,19.122v0Zm0,71.685v0Zm35.9-32.258h0Zm-71.807,0h0ZM57.051,72.885a5.359,5.359,0,0,1-3.806-1.573L30.123,48.23l7.616-7.6L57.051,59.908,105.3,11.736l7.619,7.6L60.861,71.31a5.374,5.374,0,0,1-3.81,1.573Zm40.931-53.77a55.336,55.336,0,1,0,6.535,8.62l-6.535-8.62Zm-7.663,7.57a44.629,44.629,0,1,0,6.3,8.918l-6.3-8.918Z" transform="translate(312.6 1385.8)" fill="none" stroke="#65e2d9" stroke-linecap="round" stroke-linejoin="round" stroke-width="1.3" fill-rule="evenodd"/>
    <path id="Path_128" data-name="Path 128" d="M62.274,43.931a7.951,7.951,0,1,1-7.951-7.937,7.945,7.945,0,0,1,7.951,7.937Z" transform="translate(347.129 1412.514)" fill="#181f2a" stroke="#65e2d9" stroke-linejoin="round" stroke-width="1.3" fill-rule="evenodd"/>
    <path id="Path_129" data-name="Path 129" d="M56.049,44.975a20.62,20.62,0,0,0-8.554,2.04,5.9,5.9,0,0,0-3.371,5.362v12.44A3.974,3.974,0,0,0,48.1,68.785V84.658a3.972,3.972,0,0,0,3.976,3.969h7.95A3.972,3.972,0,0,0,64,84.658V68.783a3.974,3.974,0,0,0,3.974-3.967V52.375A5.9,5.9,0,0,0,64.6,47.013a20.634,20.634,0,0,0-8.554-2.04Z" transform="translate(345.402 1419.408)" fill="#181f2a" stroke="#65e2d9" stroke-linecap="round" stroke-linejoin="round" stroke-width="1.3" fill-rule="evenodd"/>
    <path id="Path_130" data-name="Path 130" d="M75.766,43.931a7.951,7.951,0,1,1-7.951-7.937,7.944,7.944,0,0,1,7.951,7.937Z" transform="translate(357.488 1412.514)" fill="#181f2a" stroke="#65e2d9" stroke-linejoin="round" stroke-width="1.3" fill-rule="evenodd"/>
    <path id="Path_131" data-name="Path 131" d="M69.541,44.975a20.62,20.62,0,0,0-8.554,2.04,5.9,5.9,0,0,0-3.371,5.362v12.44a3.972,3.972,0,0,0,3.976,3.969V84.658a3.974,3.974,0,0,0,3.976,3.969h7.95a3.972,3.972,0,0,0,3.974-3.969V68.783a3.972,3.972,0,0,0,3.978-3.967V52.375A5.9,5.9,0,0,0,78.1,47.013a20.641,20.641,0,0,0-8.554-2.04Z" transform="translate(355.761 1419.408)" fill="#181f2a" stroke="#65e2d9" stroke-linecap="round" stroke-linejoin="round" stroke-width="1.3" fill-rule="evenodd"/>
    <path id="Path_132" data-name="Path 132" d="M89.256,43.931a7.95,7.95,0,1,1-7.95-7.937,7.943,7.943,0,0,1,7.95,7.937Z" transform="translate(367.847 1412.514)" fill="#181f2a" stroke="#65e2d9" stroke-linejoin="round" stroke-width="1.3" fill-rule="evenodd"/>
    <path id="Path_133" data-name="Path 133" d="M83.033,44.975a20.62,20.62,0,0,0-8.554,2.04,5.9,5.9,0,0,0-3.371,5.362v12.44a3.972,3.972,0,0,0,3.976,3.969V84.658a3.974,3.974,0,0,0,3.974,3.969h7.951a3.972,3.972,0,0,0,3.974-3.969V68.783a3.972,3.972,0,0,0,3.976-3.967V52.375a5.9,5.9,0,0,0-3.371-5.362,20.641,20.641,0,0,0-8.554-2.04Z" transform="translate(366.12 1419.408)" fill="#181f2a" stroke="#65e2d9" stroke-linecap="round" stroke-linejoin="round" stroke-width="1.3" fill-rule="evenodd"/>
  </g>
</svg>
