<svg xmlns="http://www.w3.org/2000/svg" width="97.932" height="125.173" viewBox="0 0 97.932 125.173">
  <g id="icon-security" transform="translate(-0.382 -0.038)">
    <path id="Path_124" data-name="Path 124" d="M55.186,37.265,37.5,55.307,24.482,42.034l-6.507,6.637L37.5,68.581,67.3,38.185l-6.509-6.637Z" transform="translate(7.169 13.16)" fill="none" stroke="#65e2d9" stroke-width="3.064" fill-rule="evenodd"/>
    <path id="Path_125" data-name="Path 125" d="M81.465,13.325A51.169,51.169,0,0,1,59.073,8.286a44.256,44.256,0,0,1-9.725-6.222,44.231,44.231,0,0,1-9.727,6.222,51.154,51.154,0,0,1-22.391,5.039H1.914V72.032a38.434,38.434,0,0,0,11.32,27.326c10.639,10.486,36.115,24.116,36.115,24.116s25.473-13.63,36.112-24.116a38.436,38.436,0,0,0,11.32-27.326V13.325H81.465Z" fill="none" stroke="#65e2d9" stroke-width="3.064" fill-rule="evenodd"/>
    <path id="Path_126" data-name="Path 126" d="M80.569,29.686V67.651A25.77,25.77,0,0,1,73.021,85.9c-6.67,6.576-21.879,15.577-27.495,18.8-5.62-3.23-20.842-12.24-27.5-18.808a25.755,25.755,0,0,1-7.541-18.24V21.58h2.927a63.756,63.756,0,0,0,27.722-6.267q2.243-1.078,4.4-2.329c1.406.817,2.893,1.605,4.432,2.347A63.652,63.652,0,0,0,77.642,21.58h2.927Z" transform="translate(3.823 4.874)" fill="none" stroke="#65e2d9" stroke-width="3.064" fill-rule="evenodd"/>
  </g>
</svg>
